<?xml version="1.0" encoding="UTF-8" standalone="no"?>
<!-- Created with Inkscape (http://www.inkscape.org/) -->

<svg
   width="87mm"
   height="57mm"
   viewBox="0 0 87 56.999997"
   version="1.1"
   id="svg5"
   xml:space="preserve"
   inkscape:version="1.2.2 (b0a8486541, 2022-12-01)"
   sodipodi:docname="karte.svg"
   inkscape:export-filename="karte-back.png"
   inkscape:export-xdpi="503.04388"
   inkscape:export-ydpi="503.04388"
   xmlns:inkscape="http://www.inkscape.org/namespaces/inkscape"
   xmlns:sodipodi="http://sodipodi.sourceforge.net/DTD/sodipodi-0.dtd"
   xmlns="http://www.w3.org/2000/svg"
   xmlns:svg="http://www.w3.org/2000/svg"><sodipodi:namedview
     id="namedview7"
     pagecolor="#ffffff"
     bordercolor="#666666"
     borderopacity="1.0"
     inkscape:showpageshadow="2"
     inkscape:pageopacity="1"
     inkscape:pagecheckerboard="0"
     inkscape:deskcolor="#d1d1d1"
     inkscape:document-units="mm"
     showgrid="false"
     inkscape:zoom="0.52709452"
     inkscape:cx="-127.11193"
     inkscape:cy="248.53227"
     inkscape:window-width="1400"
     inkscape:window-height="761"
     inkscape:window-x="0"
     inkscape:window-y="32"
     inkscape:window-maximized="1"
     inkscape:current-layer="layer4"
     showguides="true"><sodipodi:guide
       position="3.2696299,0.99999995"
       orientation="0,1"
       id="guide246"
       inkscape:locked="false"
       inkscape:label=""
       inkscape:color="rgb(0,134,229)" /><sodipodi:guide
       position="0.99999993,12.95614"
       orientation="-1,0"
       id="guide248"
       inkscape:label=""
       inkscape:locked="false"
       inkscape:color="rgb(0,134,229)" /><sodipodi:guide
       position="3.2696299,55.999997"
       orientation="0,1"
       id="guide250"
       inkscape:label=""
       inkscape:locked="false"
       inkscape:color="rgb(0,134,229)" /><sodipodi:guide
       position="85.999995,-8.7976341"
       orientation="-1,0"
       id="guide252"
       inkscape:label=""
       inkscape:locked="false"
       inkscape:color="rgb(0,134,229)" /><sodipodi:guide
       position="3.2696299,4.9999997"
       orientation="0,1"
       id="guide308"
       inkscape:label=""
       inkscape:locked="false"
       inkscape:color="rgb(0,134,229)" /><sodipodi:guide
       position="4.9999998,51.999997"
       orientation="-1,0"
       id="guide310"
       inkscape:label=""
       inkscape:locked="false"
       inkscape:color="rgb(0,134,229)" /><sodipodi:guide
       position="81.999996,51.999997"
       orientation="-1,0"
       id="guide312"
       inkscape:label=""
       inkscape:locked="false"
       inkscape:color="rgb(0,134,229)" /><sodipodi:guide
       position="3.2696299,51.999997"
       orientation="0,1"
       id="guide314"
       inkscape:label=""
       inkscape:locked="false"
       inkscape:color="rgb(0,134,229)" /><inkscape:page
       x="0"
       y="0"
       width="87"
       height="56.999996"
       id="page5725" /><inkscape:page
       x="-1.5914915e-10"
       y="69.999992"
       width="87"
       height="56.999996"
       id="page5727" /><inkscape:page
       x="95.065094"
       y="69.970403"
       width="0"
       height="0"
       id="page5884" /><inkscape:page
       x="97"
       y="0"
       width="87"
       height="56.999992"
       id="page6266" /><sodipodi:guide
       position="14.022826,-18.022083"
       orientation="0,-1"
       id="guide6988"
       inkscape:locked="false" /><sodipodi:guide
       position="18.509651,-64.994052"
       orientation="0,-1"
       id="guide6990"
       inkscape:locked="false" /></sodipodi:namedview><defs
     id="defs2"><rect
       x="204.51785"
       y="-29.431761"
       width="117.62024"
       height="418.83719"
       id="rect1055" /><rect
       x="204.51785"
       y="-29.431761"
       width="117.62024"
       height="418.83719"
       id="rect1055-7" /></defs><g
     inkscape:groupmode="layer"
     id="layer2"
     inkscape:label="markers" /><g
     inkscape:groupmode="layer"
     id="layer4"
     inkscape:label="background"><rect
       style="opacity:0.25;fill:#b6cbaa;fill-opacity:1;stroke-width:0.119996;stroke-linecap:round;stroke-linejoin:round;stroke-opacity:0.88964"
       id="rect32302"
       x="0"
       y="-5.5511151e-17"
       width="87"
       height="57" /><rect
       style="opacity:0.5;fill:#fffae3;fill-opacity:1;stroke-width:0.101813;stroke-linecap:round;stroke-linejoin:round;stroke-opacity:0.88964"
       id="rect1118"
       width="87"
       height="57"
       x="9.8408508e-09"
       y="70" /></g><g
     inkscape:label="Layer 1"
     inkscape:groupmode="layer"
     id="layer1"><g
       inkscape:label="Layer 1"
       id="g6685"
       transform="matrix(0.55496684,0,0,0.55496684,-1.6157167,-256.15582)"
       style="opacity:0.41960104;stroke-width:0.620996;stroke-dasharray:none"><g
         id="g6669"
         transform="translate(-116.19461,372.54084)"><circle
           style="opacity:1;fill:#b6cbaa;fill-opacity:1;fill-rule:evenodd;stroke:#000000;stroke-width:1.50487;stroke-linejoin:round;stroke-miterlimit:4;stroke-dasharray:none;stroke-dashoffset:0"
           id="circle6657"
           cx="-18.369595"
           cy="140.10167"
           r="174.94731" /><g
           id="g6667"
           style="stroke-width:0.620996;stroke-dasharray:none"
           transform="matrix(0.68235549,0,0,0.69026364,50.058403,40.413437)"><path
             sodipodi:nodetypes="ccccc"
             inkscape:connector-curvature="0"
             id="path6659"
             d="m 94.536423,93.697371 c 5.162287,-2.966949 10.934607,-4.713837 19.624137,-0.626295 l 6.51163,37.553644 -29.934186,1.87088 z"
             style="fill:#ffffff;stroke:#000000;stroke-width:0.620996;stroke-linecap:butt;stroke-linejoin:miter;stroke-dasharray:none;stroke-opacity:1" /><path
             sodipodi:nodetypes="szzsccccccccczsccs"
             inkscape:connector-curvature="0"
             id="path6661"
             d="m 51.321568,156.74423 c 0.0696,-4.73353 -1.503345,-6.20453 0.417533,-14.19598 1.920878,-7.99145 10.892836,-24.8993 15.031257,-31.73219 4.138421,-6.83289 4.265758,-7.72062 7.724394,-10.22947 5.718223,-4.147922 20.041671,-6.889218 20.041671,-6.889218 l 7.306867,35.698718 9.81206,36.11624 -5.84548,26.72185 -36.743072,-22.33779 4.384118,-7.098 1.878906,-7.09798 c 0.503509,-5.08031 0.518725,-10.13192 0.417536,-15.2398 l -0.417536,-9.81193 c 0,0 -3.913991,8.93389 -4.680806,13.96082 -0.766815,5.02693 -1.680806,10.7949 -1.373449,14.84866 0.168437,2.22153 0.208767,6.68047 0.208767,6.68047 l -18.162766,-5.01035 c 0,0 -0.02148,-2.92286 0,-4.38405 z"
             style="fill:#ffffff;stroke:#000000;stroke-width:0.620996;stroke-linecap:butt;stroke-linejoin:miter;stroke-dasharray:none;stroke-opacity:1" /><path
             sodipodi:nodetypes="ccccccccccscccccc"
             inkscape:connector-curvature="0"
             id="path6663"
             d="m 84.933123,197.24451 c -0.41753,-1.67011 -1.8789,-17.11867 -1.8789,-17.11867 l 6.26302,-20.66768 13.987407,-37.16006 10.85591,-29.227022 c 0,0 12.64627,1.501756 16.34236,3.439979 19.49346,8.305813 20.04452,47.613993 20.07376,68.767253 -5.8763,-0.9236 -11.76353,-1.1255 -19.81684,-2.08366 1.23088,-10.42041 1.22989,-20.12478 0.10212,-28.37068 l -3.13151,16.07485 c 0,0 0.18727,3.22618 0.25004,5.21911 0.0608,1.92879 0.16749,5.21912 0.16749,5.21912 l 0.6263,7.09798 4.38412,7.30675 -1.87891,4.38406 -24.00826,7.93304 z"
             style="fill:#ffffff;stroke:#000000;stroke-width:0.620996;stroke-linecap:butt;stroke-linejoin:miter;stroke-dasharray:none;stroke-opacity:1" /><path
             sodipodi:nodetypes="ccccccccccccccccccccc"
             inkscape:connector-curvature="0"
             id="path6665"
             d="m 73.450916,162.79839 5.427952,6.4717 -9.185767,5.01035 -8.453996,9.38339 1.252604,4.80159 c 9.339169,-11.9895 16.387159,-19.19533 32.024942,-10.95464 7.720609,-0.30643 12.095379,-1.02096 18.182539,-1.14269 10.88651,3.18353 15.94266,6.26144 23.17319,15.23979 l 2.92274,-2.9227 c -7.51563,-8.55934 -12.56712,-11.72384 -21.29428,-14.61351 l 8.55947,-2.08764 2.71397,-3.549 -0.6263,-7.09798 -7.7244,4.59281 -8.76823,-0.41753 -14.196177,0.41753 -7.93317,-0.62629 -3.96658,-2.71394 -6.471786,-2.71394 -3.757815,-4.17528 z"
             style="fill:#000000;stroke:#000000;stroke-width:0.620996;stroke-linecap:butt;stroke-linejoin:miter;stroke-dasharray:none;stroke-opacity:1" /></g></g></g><text
       xml:space="preserve"
       transform="scale(0.26458333)"
       id="text1053"
       style="font-size:10.6667px;line-height:1.25;font-family:'Roboto Mono';-inkscape-font-specification:'Roboto Mono';white-space:pre;shape-inside:url(#rect1055);display:inline" /><text
       xml:space="preserve"
       style="font-size:2.82222px;line-height:1.25;font-family:'Noto Sans';-inkscape-font-specification:'Noto Sans';stroke-width:0.264583"
       x="28.626135"
       y="31.671343"
       id="text1121"><tspan
         sodipodi:role="line"
         id="tspan1119"
         style="font-size:2.82222px;stroke-width:0.264583"
         x="28.626135"
         y="31.671343" /></text><text
       xml:space="preserve"
       style="font-style:normal;font-variant:normal;font-weight:bold;font-stretch:normal;font-size:3.99759px;line-height:1.25;font-family:'Noto Looped Thai';-inkscape-font-specification:'Noto Looped Thai Bold';text-align:start;text-anchor:start;stroke-width:0.141081"
       x="21.625967"
       y="9.0958309"
       id="text441"><tspan
         sodipodi:role="line"
         style="font-style:normal;font-variant:normal;font-weight:bold;font-stretch:normal;font-size:3.99759px;font-family:'Noto Looped Thai';-inkscape-font-specification:'Noto Looped Thai Bold';text-align:start;text-anchor:start;stroke-width:0.141081"
         x="21.625967"
         y="9.0958309"
         id="tspan1051">Fit für deine nächste Prüfung?</tspan><tspan
         sodipodi:role="line"
         style="font-style:normal;font-variant:normal;font-weight:bold;font-stretch:normal;font-size:3.99759px;font-family:'Noto Looped Thai';-inkscape-font-specification:'Noto Looped Thai Bold';text-align:start;text-anchor:start;stroke-width:0.141081"
         x="21.625967"
         y="14.092818"
         id="tspan1063" /><tspan
         sodipodi:role="line"
         style="font-style:normal;font-variant:normal;font-weight:bold;font-stretch:normal;font-size:3.99759px;font-family:'Noto Looped Thai';-inkscape-font-specification:'Noto Looped Thai Bold';text-align:start;text-anchor:start;stroke-width:0.141081"
         x="21.625967"
         y="19.089806"
         id="tspan1085" /></text><text
       xml:space="preserve"
       style="font-size:3.85113px;line-height:1.25;font-family:'Noto Sans';-inkscape-font-specification:'Noto Sans';stroke-width:0.144418"
       x="23.692762"
       y="17.570347"
       id="text6892"><tspan
         sodipodi:role="line"
         style="stroke-width:0.144418"
         x="23.692762"
         y="17.570347"
         id="tspan6894">Bau dir deine</tspan><tspan
         sodipodi:role="line"
         style="stroke-width:0.144418"
         x="23.692762"
         y="22.38426"
         id="tspan6967" /></text><text
       xml:space="preserve"
       style="font-size:4.45717px;line-height:1.25;font-family:'Noto Sans';-inkscape-font-specification:'Noto Sans';stroke-width:0.167144"
       x="26.319017"
       y="39.700672"
       id="text6900"><tspan
         sodipodi:role="line"
         style="stroke-width:0.167144"
         x="26.319017"
         y="39.700672"
         id="tspan6898">Druck sie aus...</tspan></text><text
       xml:space="preserve"
       style="font-size:4.36951px;line-height:1.25;font-family:'Noto Sans';-inkscape-font-specification:'Noto Sans';stroke-width:0.163856"
       x="34.860085"
       y="49.168777"
       id="text6904"><tspan
         sodipodi:role="line"
         id="tspan6902"
         style="stroke-width:0.163856"
         x="34.860085"
         y="49.168777">..oder lass sie vorlesen</tspan></text><text
       xml:space="preserve"
       style="font-size:5.0129px;line-height:1.25;font-family:'Noto Sans';-inkscape-font-specification:'Noto Sans';stroke-width:0.187983"
       x="43.949329"
       y="25.679728"
       id="text6971"><tspan
         sodipodi:role="line"
         id="tspan6969"
         style="stroke-width:0.187983"
         x="43.949329"
         y="25.679728">Probeprüfung</tspan></text><text
       xml:space="preserve"
       style="font-size:2.82222px;line-height:1.25;font-family:'Noto Sans';-inkscape-font-specification:'Noto Sans';stroke-width:0.0646778"
       x="6.5518923"
       y="120.30119"
       id="text1129"><tspan
         sodipodi:role="line"
         style="font-size:2.82222px;stroke-width:0.0646778"
         x="6.5518923"
         y="120.30119"
         id="tspan1131">Nils Knappmeier - nk@knappi.org</tspan></text><text
       xml:space="preserve"
       style="font-size:2.10512px;line-height:1.25;font-family:'Noto Sans';-inkscape-font-specification:'Noto Sans';stroke-width:0.0789419"
       x="6.6214509"
       y="116.08331"
       id="text22107"><tspan
         sodipodi:role="line"
         id="tspan22105"
         style="stroke-width:0.0789419"
         x="6.6214509"
         y="116.08331">Feedback, Fragen, Wünsche?</tspan></text><path
       d="m 49.749229,83.499993 h 1.03448 v 1.034485 h -1.03448 z m 1.03448,0 h 1.03448 v 1.034485 h -1.03448 z m 1.03448,0 h 1.03449 v 1.034485 h -1.03449 z m 1.03449,0 h 1.03448 v 1.034485 h -1.03448 z m 1.03448,0 h 1.034479 v 1.034485 h -1.034479 z m 1.034479,0 h 1.03449 v 1.034485 h -1.03449 z m 1.03449,0 h 1.034481 v 1.034485 h -1.034481 z m 2.06896,0 h 1.03449 v 1.034485 h -1.03449 z m 1.03449,0 h 1.03448 v 1.034485 h -1.03448 z m 1.03448,0 h 1.034481 v 1.034485 h -1.034481 z m 2.06896,0 h 1.03449 v 1.034485 h -1.03449 z m 1.03449,0 h 1.03448 v 1.034485 h -1.03448 z m 1.03448,0 h 1.034479 v 1.034485 h -1.034479 z m 1.034479,0 h 1.034481 v 1.034485 h -1.034481 z m 3.103451,0 h 1.034479 v 1.034485 h -1.034479 z m 1.034479,0 h 1.034481 v 1.034485 h -1.034481 z m 1.034481,0 h 1.03449 v 1.034485 h -1.03449 z m 2.068969,0 h 1.03448 v 1.034485 h -1.03448 z m 1.03448,0 h 1.03449 v 1.034485 h -1.03449 z m 1.03449,0 h 1.03448 v 1.034485 h -1.03448 z m 1.03448,0 h 1.03448 v 1.034485 h -1.03448 z m 1.03448,0 h 1.034492 v 1.034485 h -1.034492 z m 1.034492,0 h 1.03448 v 1.034485 h -1.03448 z m 1.03448,0 h 1.03448 v 1.034485 h -1.03448 z m -28.96552,1.034485 h 1.03448 v 1.034476 h -1.03448 z m 6.206899,0 h 1.034481 v 1.034476 h -1.034481 z m 2.06896,0 h 1.03449 v 1.034476 h -1.03449 z m 1.03449,0 h 1.03448 v 1.034476 h -1.03448 z m 1.03448,0 h 1.034481 v 1.034476 h -1.034481 z m 3.10345,0 h 1.03448 v 1.034476 h -1.03448 z m 3.10344,0 h 1.03449 v 1.034476 h -1.03449 z m 1.03449,0 h 1.03448 v 1.034476 h -1.03448 z m 3.10344,0 h 1.03449 v 1.034476 h -1.03449 z m 2.068969,0 h 1.03448 v 1.034476 h -1.03448 z m 6.206902,0 h 1.03448 v 1.034476 h -1.03448 z m -28.96552,1.034476 h 1.03448 v 1.034485 h -1.03448 z m 2.06896,0 h 1.03449 v 1.034485 h -1.03449 z m 1.03449,0 h 1.03448 v 1.034485 h -1.03448 z m 1.03448,0 h 1.034479 v 1.034485 h -1.034479 z m 2.068969,0 h 1.034481 v 1.034485 h -1.034481 z m 3.10345,0 h 1.03448 v 1.034485 h -1.03448 z m 2.068961,0 h 1.034479 v 1.034485 h -1.034479 z m 1.034479,0 h 1.03449 v 1.034485 h -1.03449 z m 4.13793,0 h 1.03449 v 1.034485 h -1.03449 z m 2.06897,0 h 1.034479 v 1.034485 h -1.034479 z m 2.06896,0 h 1.03449 v 1.034485 h -1.03449 z m 2.068969,0 h 1.03448 v 1.034485 h -1.03448 z m 2.06897,0 h 1.03448 v 1.034485 h -1.03448 z m 1.03448,0 h 1.03448 v 1.034485 h -1.03448 z m 1.03448,0 h 1.034492 v 1.034485 h -1.034492 z m 2.068972,0 h 1.03448 v 1.034485 h -1.03448 z m -28.96552,1.034485 h 1.03448 v 1.034486 h -1.03448 z m 2.06896,0 h 1.03449 v 1.034486 h -1.03449 z m 1.03449,0 h 1.03448 v 1.034486 h -1.03448 z m 1.03448,0 h 1.034479 v 1.034486 h -1.034479 z m 2.068969,0 h 1.034481 v 1.034486 h -1.034481 z m 2.06896,0 h 1.03449 v 1.034486 h -1.03449 z m 4.13793,0 h 1.03449 v 1.034486 h -1.03449 z m 2.06897,0 h 1.034479 v 1.034486 h -1.034479 z m 1.034479,0 h 1.034481 v 1.034486 h -1.034481 z m 2.068971,0 h 1.03448 v 1.034486 h -1.03448 z m 2.068959,0 h 1.034481 v 1.034486 h -1.034481 z m 3.10345,0 h 1.03448 v 1.034486 h -1.03448 z m 2.06897,0 h 1.03448 v 1.034486 h -1.03448 z m 1.03448,0 h 1.03448 v 1.034486 h -1.03448 z m 1.03448,0 h 1.034492 v 1.034486 h -1.034492 z m 2.068972,0 h 1.03448 v 1.034486 h -1.03448 z m -28.96552,1.034486 h 1.03448 V 88.6724 h -1.03448 z m 2.06896,0 h 1.03449 V 88.6724 h -1.03449 z m 1.03449,0 h 1.03448 V 88.6724 h -1.03448 z m 1.03448,0 h 1.034479 V 88.6724 h -1.034479 z m 2.068969,0 h 1.034481 V 88.6724 h -1.034481 z m 3.10345,0 h 1.03448 V 88.6724 h -1.03448 z m 1.03448,0 h 1.034481 V 88.6724 h -1.034481 z m 1.034481,0 h 1.034479 V 88.6724 h -1.034479 z m 1.034479,0 h 1.03449 V 88.6724 h -1.03449 z m 2.06897,0 h 1.034479 V 88.6724 h -1.034479 z m 2.06896,0 h 1.03449 V 88.6724 h -1.03449 z m 1.03449,0 h 1.03448 V 88.6724 h -1.03448 z m 1.03448,0 h 1.034479 V 88.6724 h -1.034479 z m 1.034479,0 h 1.034481 V 88.6724 h -1.034481 z m 3.10345,0 h 1.03448 V 88.6724 h -1.03448 z m 2.06897,0 h 1.03448 V 88.6724 h -1.03448 z m 1.03448,0 h 1.03448 V 88.6724 h -1.03448 z m 1.03448,0 h 1.034492 V 88.6724 h -1.034492 z m 2.068972,0 h 1.03448 V 88.6724 h -1.03448 z M 49.749229,88.6724 h 1.03448 v 1.034497 h -1.03448 z m 6.206899,0 h 1.034481 v 1.034497 h -1.034481 z m 5.172411,0 h 1.034479 v 1.034497 h -1.034479 z m 2.068969,0 h 1.03448 v 1.034497 h -1.03448 z m 2.068959,0 h 1.034481 v 1.034497 h -1.034481 z m 1.034481,0 h 1.03449 v 1.034497 h -1.03449 z m 3.103449,0 h 1.034481 v 1.034497 h -1.034481 z m 1.034481,0 h 1.03449 v 1.034497 h -1.03449 z m 2.068969,0 h 1.03448 v 1.034497 h -1.03448 z m 6.206902,0 h 1.03448 v 1.034497 h -1.03448 z m -28.96552,1.034497 h 1.03448 v 1.034475 h -1.03448 z m 1.03448,0 h 1.03448 v 1.034475 h -1.03448 z m 1.03448,0 h 1.03449 v 1.034475 h -1.03449 z m 1.03449,0 h 1.03448 v 1.034475 h -1.03448 z m 1.03448,0 h 1.034479 v 1.034475 h -1.034479 z m 1.034479,0 h 1.03449 v 1.034475 h -1.03449 z m 1.03449,0 h 1.034481 v 1.034475 h -1.034481 z m 2.06896,0 h 1.03449 v 1.034475 h -1.03449 z m 2.06897,0 h 1.034481 v 1.034475 h -1.034481 z m 2.06896,0 h 1.03449 v 1.034475 h -1.03449 z m 2.06897,0 h 1.034479 v 1.034475 h -1.034479 z m 2.06896,0 h 1.03449 v 1.034475 h -1.03449 z m 2.06897,0 h 1.034479 v 1.034475 h -1.034479 z m 2.06896,0 h 1.03449 v 1.034475 h -1.03449 z m 2.068969,0 h 1.03448 v 1.034475 h -1.03448 z m 1.03448,0 h 1.03449 v 1.034475 h -1.03449 z m 1.03449,0 h 1.03448 v 1.034475 h -1.03448 z m 1.03448,0 h 1.03448 v 1.034475 h -1.03448 z m 1.03448,0 h 1.034492 v 1.034475 h -1.034492 z m 1.034492,0 h 1.03448 v 1.034475 h -1.03448 z m 1.03448,0 h 1.03448 v 1.034475 h -1.03448 z m -20.689661,1.034475 h 1.03449 v 1.034486 h -1.03449 z m 2.06897,0 h 1.034481 v 1.034486 h -1.034481 z m 5.172409,0 h 1.034481 v 1.034486 h -1.034481 z m 1.034481,0 h 1.03449 v 1.034486 h -1.03449 z m 1.03449,0 h 1.03448 v 1.034486 h -1.03448 z m 2.068959,0 h 1.034481 v 1.034486 h -1.034481 z m 1.034481,0 h 1.03449 v 1.034486 h -1.03449 z m -20.689649,1.034486 h 1.03448 v 1.034485 h -1.03448 z m 2.06896,0 h 1.03449 v 1.034485 h -1.03449 z m 1.03449,0 h 1.03448 v 1.034485 h -1.03448 z m 2.068959,0 h 1.03449 v 1.034485 h -1.03449 z m 1.03449,0 h 1.034481 v 1.034485 h -1.034481 z m 1.034481,0 h 1.034479 v 1.034485 h -1.034479 z m 5.172409,0 h 1.03449 v 1.034485 h -1.03449 z m 1.03449,0 h 1.03448 v 1.034485 h -1.03448 z m 2.068959,0 h 1.034481 v 1.034485 h -1.034481 z m 1.034481,0 h 1.03449 v 1.034485 h -1.03449 z m 1.03449,0 h 1.03448 v 1.034485 h -1.03448 z m 1.03448,0 h 1.034479 v 1.034485 h -1.034479 z m 4.137929,0 h 1.03448 v 1.034485 h -1.03448 z m 3.10345,0 h 1.03448 v 1.034485 h -1.03448 z m 2.068972,0 h 1.03448 v 1.034485 h -1.03448 z m 1.03448,0 h 1.03448 v 1.034485 h -1.03448 z m -26.89656,1.034485 h 1.03449 v 1.034487 h -1.03449 z m 1.03449,0 h 1.03448 v 1.034487 h -1.03448 z m 1.03448,0 h 1.034479 v 1.034487 h -1.034479 z m 1.034479,0 h 1.03449 v 1.034487 h -1.03449 z m 3.10345,0 h 1.03449 v 1.034487 h -1.03449 z m 1.03449,0 h 1.03448 v 1.034487 h -1.03448 z m 3.10344,0 h 1.03449 v 1.034487 h -1.03449 z m 1.03449,0 h 1.03448 v 1.034487 h -1.03448 z m 1.03448,0 h 1.034479 v 1.034487 h -1.034479 z m 1.034479,0 h 1.034481 v 1.034487 h -1.034481 z m 4.13793,0 h 1.034481 v 1.034487 h -1.034481 z m 1.034481,0 h 1.03449 v 1.034487 h -1.03449 z m 1.03449,0 h 1.034479 v 1.034487 h -1.034479 z m 1.034479,0 h 1.03448 v 1.034487 h -1.03448 z m 1.03448,0 h 1.03449 v 1.034487 h -1.03449 z m 1.03449,0 h 1.03448 v 1.034487 h -1.03448 z m 4.137932,0 h 1.03448 v 1.034487 h -1.03448 z m -28.96552,1.034487 h 1.03448 v 1.034474 h -1.03448 z m 2.06896,0 h 1.03449 v 1.034474 h -1.03449 z m 4.137939,0 h 1.034481 v 1.034474 h -1.034481 z m 3.10345,0 h 1.03448 v 1.034474 h -1.03448 z m 1.03448,0 h 1.034481 v 1.034474 h -1.034481 z m 2.06896,0 h 1.03449 v 1.034474 h -1.03449 z m 1.03449,0 h 1.03448 v 1.034474 h -1.03448 z m 3.10344,0 h 1.03449 v 1.034474 h -1.03449 z m 1.03449,0 h 1.03448 v 1.034474 h -1.03448 z m 3.10344,0 h 1.03449 v 1.034474 h -1.03449 z m 1.03449,0 h 1.034479 v 1.034474 h -1.034479 z m 5.172409,0 h 1.034492 v 1.034474 h -1.034492 z m 1.034492,0 h 1.03448 v 1.034474 h -1.03448 z m -23.79311,1.034474 h 1.034479 v 1.034476 h -1.034479 z m 3.10345,0 h 1.034479 v 1.034476 h -1.034479 z m 1.034479,0 h 1.03449 v 1.034476 h -1.03449 z m 2.06897,0 h 1.034481 v 1.034476 h -1.034481 z m 5.172409,0 h 1.034481 v 1.034476 h -1.034481 z m 5.172411,0 h 1.03449 v 1.034476 h -1.03449 z m 2.068969,0 h 1.03448 v 1.034476 h -1.03448 z m 2.06897,0 h 1.03448 v 1.034476 h -1.03448 z m 4.137932,0 h 1.03448 v 1.034476 h -1.03448 z m -27.93104,1.034476 h 1.03448 v 1.034491 h -1.03448 z m 1.03448,0 h 1.03449 v 1.034491 h -1.03449 z m 3.103449,0 h 1.03449 v 1.034491 h -1.03449 z m 1.03449,0 h 1.034481 v 1.034491 h -1.034481 z m 1.034481,0 h 1.034479 v 1.034491 h -1.034479 z m 2.068969,0 h 1.03448 v 1.034491 h -1.03448 z m 1.03448,0 h 1.034481 v 1.034491 h -1.034481 z m 4.13793,0 h 1.034479 v 1.034491 h -1.034479 z m 3.10345,0 h 1.03448 v 1.034491 h -1.03448 z m 2.068959,0 h 1.034481 v 1.034491 h -1.034481 z m 6.2069,0 h 1.03448 v 1.034491 h -1.03448 z m 1.03448,0 h 1.034492 v 1.034491 h -1.034492 z m -26.896548,1.034491 h 1.03448 v 1.034482 h -1.03448 z m 1.03448,0 h 1.03448 v 1.034482 h -1.03448 z m 1.03448,0 h 1.03449 v 1.034482 h -1.03449 z m 1.03449,0 h 1.03448 v 1.034482 h -1.03448 z m 4.13793,0 h 1.034479 v 1.034482 h -1.034479 z m 7.241379,0 h 1.034479 v 1.034482 h -1.034479 z m 1.034479,0 h 1.034481 v 1.034482 h -1.034481 z m 4.13793,0 h 1.034481 v 1.034482 h -1.034481 z m 1.034481,0 h 1.03449 v 1.034482 h -1.03449 z m 2.068969,0 h 1.03448 v 1.034482 h -1.03448 z m 4.13793,0 h 1.034492 v 1.034482 h -1.034492 z m 1.034492,0 h 1.03448 v 1.034482 h -1.03448 z m 1.03448,0 h 1.03448 v 1.034482 h -1.03448 z m -27.93104,1.034482 h 1.03448 v 1.034486 h -1.03448 z m 1.03448,0 h 1.03449 v 1.034486 h -1.03449 z m 2.06897,0 h 1.034479 v 1.034486 h -1.034479 z m 1.034479,0 h 1.03449 v 1.034486 h -1.03449 z m 1.03449,0 h 1.034481 v 1.034486 h -1.034481 z m 1.034481,0 h 1.034479 v 1.034486 h -1.034479 z m 2.068969,0 h 1.03448 v 1.034486 h -1.03448 z m 1.03448,0 h 1.034481 v 1.034486 h -1.034481 z m 1.034481,0 h 1.034479 v 1.034486 h -1.034479 z m 1.034479,0 h 1.03449 v 1.034486 h -1.03449 z m 1.03449,0 h 1.03448 v 1.034486 h -1.03448 z m 6.206889,0 h 1.034481 v 1.034486 h -1.034481 z m 1.034481,0 h 1.03449 v 1.034486 h -1.03449 z m 1.03449,0 h 1.034479 v 1.034486 h -1.034479 z m 2.068959,0 h 1.03449 v 1.034486 h -1.03449 z m 1.03449,0 h 1.03448 v 1.034486 h -1.03448 z m 2.06896,0 h 1.034492 v 1.034486 h -1.034492 z m 1.034492,0 h 1.03448 v 1.034486 h -1.03448 z m 1.03448,0 h 1.03448 v 1.034486 h -1.03448 z m -27.93104,1.034486 h 1.03448 v 1.034471 h -1.03448 z m 1.03448,0 h 1.03449 v 1.034471 h -1.03449 z m 1.03449,0 h 1.03448 v 1.034471 h -1.03448 z m 1.03448,0 h 1.034479 v 1.034471 h -1.034479 z m 1.034479,0 h 1.03449 v 1.034471 h -1.03449 z m 3.10345,0 h 1.03449 v 1.034471 h -1.03449 z m 4.13793,0 h 1.03449 v 1.034471 h -1.03449 z m 2.06897,0 h 1.034479 v 1.034471 h -1.034479 z m 1.034479,0 h 1.034481 v 1.034471 h -1.034481 z m 1.034481,0 h 1.03449 v 1.034471 h -1.03449 z m 4.13793,0 h 1.03449 v 1.034471 h -1.03449 z m 2.068969,0 h 1.03448 v 1.034471 h -1.03448 z m 5.172422,0 h 1.03448 v 1.034471 h -1.03448 z m -26.89656,1.034471 h 1.03448 v 1.0345 h -1.03448 z m 1.03448,0 h 1.03449 v 1.0345 h -1.03449 z m 1.03449,0 h 1.03448 v 1.0345 h -1.03448 z m 3.103449,0 h 1.034481 v 1.0345 h -1.034481 z m 4.13793,0 h 1.034481 v 1.0345 h -1.034481 z m 1.034481,0 h 1.034479 v 1.0345 h -1.034479 z m 1.034479,0 h 1.03449 v 1.0345 h -1.03449 z m 2.06897,0 h 1.034479 v 1.0345 h -1.034479 z m 5.172409,0 h 1.034481 v 1.0345 h -1.034481 z m 1.034481,0 h 1.03449 v 1.0345 h -1.03449 z m 3.103449,0 h 1.03449 v 1.0345 h -1.03449 z m 1.03449,0 h 1.03448 v 1.0345 h -1.03448 z m 1.03448,0 h 1.03448 v 1.0345 h -1.03448 z m 2.068972,0 h 1.03448 v 1.0345 h -1.03448 z m -25.86208,1.0345 h 1.03449 v 1.03447 h -1.03449 z m 3.103449,0 h 1.03449 v 1.03447 h -1.03449 z m 2.068971,0 h 1.034479 v 1.03447 h -1.034479 z m 1.034479,0 h 1.03449 v 1.03447 h -1.03449 z m 1.03449,0 h 1.03448 v 1.03447 h -1.03448 z m 1.03448,0 h 1.034481 v 1.03447 h -1.034481 z m 2.06896,0 h 1.03449 v 1.03447 h -1.03449 z m 2.06897,0 h 1.034479 v 1.03447 h -1.034479 z m 1.034479,0 h 1.034481 v 1.03447 h -1.034481 z m 2.068971,0 h 1.03448 v 1.03447 h -1.03448 z m 3.10344,0 h 1.03449 v 1.03447 h -1.03449 z m 3.103449,0 h 1.03449 v 1.03447 h -1.03449 z m 2.06897,0 h 1.03448 v 1.03447 h -1.03448 z m 1.03448,0 h 1.034492 v 1.03447 h -1.034492 z m 1.034492,0 h 1.03448 v 1.03447 h -1.03448 z m -27.93104,1.03447 h 1.03448 v 1.03447 h -1.03448 z m 2.06896,0 h 1.03449 v 1.03447 h -1.03449 z m 2.06897,0 h 1.034479 v 1.03447 h -1.034479 z m 2.068969,0 h 1.034481 v 1.03447 h -1.034481 z m 1.034481,0 h 1.034479 v 1.03447 h -1.034479 z m 1.034479,0 h 1.03449 v 1.03447 h -1.03449 z m 1.03449,0 h 1.03448 v 1.03447 h -1.03448 z m 3.10344,0 h 1.03449 v 1.03447 h -1.03449 z m 1.03449,0 h 1.03448 v 1.03447 h -1.03448 z m 1.03448,0 h 1.034479 v 1.03447 h -1.034479 z m 1.034479,0 h 1.034481 v 1.03447 h -1.034481 z m 2.068971,0 h 1.03448 v 1.03447 h -1.03448 z m 3.10344,0 h 1.03449 v 1.03447 h -1.03449 z m 2.068969,0 h 1.03448 v 1.03447 h -1.03448 z m 1.03448,0 h 1.03449 v 1.03447 h -1.03449 z m 1.03449,0 h 1.03448 v 1.03447 h -1.03448 z m 2.06896,0 h 1.034492 v 1.03447 h -1.034492 z m -21.724139,1.03447 h 1.03449 v 1.03449 h -1.03449 z m 2.068971,0 h 1.034479 v 1.03449 h -1.034479 z m 4.13793,0 h 1.034479 v 1.03449 h -1.034479 z m 1.034479,0 h 1.03449 v 1.03449 h -1.03449 z m 1.03449,0 h 1.03448 v 1.03449 h -1.03448 z m 1.03448,0 h 1.034479 v 1.03449 h -1.034479 z m 2.06896,0 h 1.03449 v 1.03449 h -1.03449 z m 1.03449,0 h 1.03448 v 1.03449 h -1.03448 z m 3.10344,0 h 1.03449 v 1.03449 h -1.03449 z m 1.03449,0 h 1.034479 v 1.03449 h -1.034479 z m 2.068959,0 h 1.03449 v 1.03449 h -1.03449 z m 1.03449,0 h 1.03448 v 1.03449 h -1.03448 z m 2.06896,0 h 1.034492 v 1.03449 h -1.034492 z m -25.862068,1.03449 h 1.03448 v 1.03448 h -1.03448 z m 1.03448,0 h 1.03449 v 1.03448 h -1.03449 z m 1.03449,0 h 1.03448 v 1.03448 h -1.03448 z m 1.03448,0 h 1.034479 v 1.03448 h -1.034479 z m 1.034479,0 h 1.03449 v 1.03448 h -1.03449 z m 1.03449,0 h 1.034481 v 1.03448 h -1.034481 z m 2.06896,0 h 1.03449 v 1.03448 h -1.03449 z m 2.06897,0 h 1.034481 v 1.03448 h -1.034481 z m 2.06896,0 h 1.03449 v 1.03448 h -1.03449 z m 1.03449,0 h 1.03448 v 1.03448 h -1.03448 z m 1.03448,0 h 1.034479 v 1.03448 h -1.034479 z m 2.06896,0 h 1.03449 v 1.03448 h -1.03449 z m 1.03449,0 h 1.03448 v 1.03448 h -1.03448 z m 1.03448,0 h 1.034479 v 1.03448 h -1.034479 z m 1.034479,0 h 1.034481 v 1.03448 h -1.034481 z m 1.034481,0 h 1.03449 v 1.03448 h -1.03449 z m 1.03449,0 h 1.034479 v 1.03448 h -1.034479 z m 1.034479,0 h 1.03448 v 1.03448 h -1.03448 z m 1.03448,0 h 1.03449 v 1.03448 h -1.03449 z m 1.03449,0 h 1.03448 v 1.03448 h -1.03448 z m 1.03448,0 h 1.03448 v 1.03448 h -1.03448 z m 1.03448,0 h 1.034492 v 1.03448 h -1.034492 z m -18.620689,1.03448 h 1.03449 v 1.0345 h -1.03449 z m 4.13793,0 h 1.03449 v 1.0345 h -1.03449 z m 4.13793,0 h 1.03449 v 1.0345 h -1.03449 z m 1.03449,0 h 1.03448 v 1.0345 h -1.03448 z m 1.03448,0 h 1.034479 v 1.0345 h -1.034479 z m 2.06896,0 h 1.03449 v 1.0345 h -1.03449 z m 4.137939,0 h 1.03448 v 1.0345 h -1.03448 z m 1.03448,0 h 1.03448 v 1.0345 h -1.03448 z m 1.03448,0 h 1.034492 v 1.0345 h -1.034492 z m 1.034492,0 h 1.03448 v 1.0345 h -1.03448 z m 1.03448,0 h 1.03448 v 1.0345 h -1.03448 z m -28.96552,1.0345 h 1.03448 v 1.03447 h -1.03448 z m 1.03448,0 h 1.03448 v 1.03447 h -1.03448 z m 1.03448,0 h 1.03449 v 1.03447 h -1.03449 z m 1.03449,0 h 1.03448 v 1.03447 h -1.03448 z m 1.03448,0 h 1.034479 v 1.03447 h -1.034479 z m 1.034479,0 h 1.03449 v 1.03447 h -1.03449 z m 1.03449,0 h 1.034481 v 1.03447 h -1.034481 z m 2.06896,0 h 1.03449 v 1.03447 h -1.03449 z m 1.03449,0 h 1.03448 v 1.03447 h -1.03448 z m 1.03448,0 h 1.034481 v 1.03447 h -1.034481 z m 1.034481,0 h 1.034479 v 1.03447 h -1.034479 z m 1.034479,0 h 1.03449 v 1.03447 h -1.03449 z m 2.06897,0 h 1.034479 v 1.03447 h -1.034479 z m 2.06896,0 h 1.03449 v 1.03447 h -1.03449 z m 2.06897,0 h 1.034479 v 1.03447 h -1.034479 z m 1.034479,0 h 1.034481 v 1.03447 h -1.034481 z m 1.034481,0 h 1.03449 v 1.03447 h -1.03449 z m 2.068969,0 h 1.03448 v 1.03447 h -1.03448 z m 2.06897,0 h 1.03448 v 1.03447 h -1.03448 z m 1.03448,0 h 1.03448 v 1.03447 h -1.03448 z m 2.068972,0 h 1.03448 v 1.03447 h -1.03448 z m -27.93104,1.03447 h 1.03448 v 1.03449 h -1.03448 z m 6.206899,0 h 1.034481 v 1.03449 h -1.034481 z m 2.06896,0 h 1.03449 v 1.03449 h -1.03449 z m 4.13793,0 h 1.03449 v 1.03449 h -1.03449 z m 1.03449,0 h 1.03448 v 1.03449 h -1.03448 z m 1.03448,0 h 1.034479 v 1.03449 h -1.034479 z m 1.034479,0 h 1.034481 v 1.03449 h -1.034481 z m 3.103451,0 h 1.034479 v 1.03449 h -1.034479 z m 2.06896,0 h 1.03449 v 1.03449 h -1.03449 z m 4.137939,0 h 1.03448 v 1.03449 h -1.03448 z m 1.03448,0 h 1.03448 v 1.03449 h -1.03448 z m -25.862068,1.03449 h 1.03448 v 1.03448 h -1.03448 z m 2.06896,0 h 1.03449 v 1.03448 h -1.03449 z m 1.03449,0 h 1.03448 v 1.03448 h -1.03448 z m 1.03448,0 h 1.034479 v 1.03448 h -1.034479 z m 2.068969,0 h 1.034481 v 1.03448 h -1.034481 z m 3.10345,0 h 1.03448 v 1.03448 h -1.03448 z m 2.068961,0 h 1.034479 v 1.03448 h -1.034479 z m 1.034479,0 h 1.03449 v 1.03448 h -1.03449 z m 5.17242,0 h 1.03448 v 1.03448 h -1.03448 z m 3.10344,0 h 1.03449 v 1.03448 h -1.03449 z m 1.03449,0 h 1.034479 v 1.03448 h -1.034479 z m 1.034479,0 h 1.03448 v 1.03448 h -1.03448 z m 1.03448,0 h 1.03449 v 1.03448 h -1.03449 z m 1.03449,0 h 1.03448 v 1.03448 h -1.03448 z m 2.06896,0 h 1.034492 v 1.03448 h -1.034492 z m 1.034492,0 h 1.03448 v 1.03448 h -1.03448 z m -27.93104,1.03448 h 1.03448 v 1.03448 h -1.03448 z m 2.06896,0 h 1.03449 v 1.03448 h -1.03449 z m 1.03449,0 h 1.03448 v 1.03448 h -1.03448 z m 1.03448,0 h 1.034479 v 1.03448 h -1.034479 z m 2.068969,0 h 1.034481 v 1.03448 h -1.034481 z m 2.06896,0 h 1.03449 v 1.03448 h -1.03449 z m 7.241379,0 h 1.034481 v 1.03448 h -1.034481 z m 2.068971,0 h 1.03448 v 1.03448 h -1.03448 z m 1.03448,0 h 1.034479 v 1.03448 h -1.034479 z m 2.06896,0 h 1.03449 v 1.03448 h -1.03449 z m 1.03449,0 h 1.034479 v 1.03448 h -1.034479 z m 2.068959,0 h 1.03449 v 1.03448 h -1.03449 z m 1.03449,0 h 1.03448 v 1.03448 h -1.03448 z m 1.03448,0 h 1.03448 v 1.03448 h -1.03448 z m 3.103452,0 h 1.03448 v 1.03448 h -1.03448 z m -28.96552,1.03448 h 1.03448 v 1.03449 h -1.03448 z m 2.06896,0 h 1.03449 v 1.03449 h -1.03449 z m 1.03449,0 h 1.03448 v 1.03449 h -1.03448 z m 1.03448,0 h 1.034479 v 1.03449 h -1.034479 z m 2.068969,0 h 1.034481 v 1.03449 h -1.034481 z m 2.06896,0 h 1.03449 v 1.03449 h -1.03449 z m 2.06897,0 h 1.034481 v 1.03449 h -1.034481 z m 1.034481,0 h 1.034479 v 1.03449 h -1.034479 z m 1.034479,0 h 1.03449 v 1.03449 h -1.03449 z m 1.03449,0 h 1.03448 v 1.03449 h -1.03448 z m 4.13793,0 h 1.03448 v 1.03449 h -1.03448 z m 2.068959,0 h 1.034481 v 1.03449 h -1.034481 z m 1.034481,0 h 1.03449 v 1.03449 h -1.03449 z m 3.103449,0 h 1.03449 v 1.03449 h -1.03449 z m 3.10345,0 h 1.034492 v 1.03449 h -1.034492 z m 2.068972,0 h 1.03448 v 1.03449 h -1.03448 z m -28.96552,1.03449 h 1.03448 v 1.03448 h -1.03448 z m 6.206899,0 h 1.034481 v 1.03448 h -1.034481 z m 4.13793,0 h 1.034481 v 1.03448 h -1.034481 z m 1.034481,0 h 1.034479 v 1.03448 h -1.034479 z m 2.068969,0 h 1.03448 v 1.03448 h -1.03448 z m 3.10344,0 h 1.03449 v 1.03448 h -1.03449 z m 2.06897,0 h 1.034479 v 1.03448 h -1.034479 z m 1.034479,0 h 1.034481 v 1.03448 h -1.034481 z m 1.034481,0 h 1.03449 v 1.03448 h -1.03449 z m 3.103449,0 h 1.03449 v 1.03448 h -1.03449 z m 1.03449,0 h 1.03448 v 1.03448 h -1.03448 z m 1.03448,0 h 1.03448 v 1.03448 h -1.03448 z m 2.068972,0 h 1.03448 v 1.03448 h -1.03448 z m -27.93104,1.03448 h 1.03448 v 1.03448 h -1.03448 z m 1.03448,0 h 1.03448 v 1.03448 h -1.03448 z m 1.03448,0 h 1.03449 v 1.03448 h -1.03449 z m 1.03449,0 h 1.03448 v 1.03448 h -1.03448 z m 1.03448,0 h 1.034479 v 1.03448 h -1.034479 z m 1.034479,0 h 1.03449 v 1.03448 h -1.03449 z m 1.03449,0 h 1.034481 v 1.03448 h -1.034481 z m 2.06896,0 h 1.03449 v 1.03448 h -1.03449 z m 2.06897,0 h 1.034481 v 1.03448 h -1.034481 z m 2.06896,0 h 1.03449 v 1.03448 h -1.03449 z m 6.2069,0 h 1.034479 v 1.03448 h -1.034479 z m 1.034479,0 h 1.034481 v 1.03448 h -1.034481 z m 1.034481,0 h 1.03449 v 1.03448 h -1.03449 z m 1.03449,0 h 1.034479 v 1.03448 h -1.034479 z m 2.068959,0 h 1.03449 v 1.03448 h -1.03449 z m 4.137942,0 h 1.03448 v 1.03448 h -1.03448 z"
       fill="#000000"
       id="path1001"
       style="stroke:none;stroke-width:1.03448" /><text
       xml:space="preserve"
       style="font-style:normal;font-variant:normal;font-weight:normal;font-stretch:normal;font-size:4.23333px;line-height:1.25;font-family:'Noto Mono';-inkscape-font-specification:'Noto Mono';stroke-width:0.101979"
       x="10.888219"
       y="80.141495"
       id="text17911"><tspan
         sodipodi:role="line"
         id="tspan17909"
         style="font-style:normal;font-variant:normal;font-weight:normal;font-stretch:normal;font-size:4.23333px;font-family:'Noto Sans';-inkscape-font-specification:'Noto Sans';stroke-width:0.101979"
         x="10.888219"
         y="80.141495">https://aikido-exam.knappi.org/</tspan></text><text
       xml:space="preserve"
       transform="matrix(0.26458333,0,0,0.26458333,-0.46263962,66.247595)"
       id="text1053-9"
       style="font-size:10.6667px;line-height:1.25;font-family:'Roboto Mono';-inkscape-font-specification:'Roboto Mono';white-space:pre;shape-inside:url(#rect1055-7);display:inline" /><text
       xml:space="preserve"
       style="font-size:2.82222px;line-height:1.25;font-family:'Noto Sans';-inkscape-font-specification:'Noto Sans';stroke-width:0.264583"
       x="28.163496"
       y="97.918938"
       id="text1121-3"><tspan
         sodipodi:role="line"
         id="tspan1119-6"
         style="font-size:2.82222px;stroke-width:0.264583"
         x="28.163496"
         y="97.918938" /></text><g
       inkscape:label="logo"
       id="layer1-6"
       transform="matrix(0.17342979,0,0,0.17342979,24.536154,7.8815206)"
       style="stroke-width:0.620996;stroke-dasharray:none"><g
         id="g6278"
         transform="translate(-116.19461,372.54084)"><circle
           style="opacity:1;fill:#b6cbaa;fill-opacity:1;fill-rule:evenodd;stroke:#000000;stroke-width:0.620996;stroke-linejoin:round;stroke-miterlimit:4;stroke-dasharray:none;stroke-dashoffset:0"
           id="path815"
           cx="102.43155"
           cy="149.96727"
           r="72.193451" /><g
           id="g851"
           style="stroke-width:0.620996;stroke-dasharray:none"><path
             sodipodi:nodetypes="ccccc"
             inkscape:connector-curvature="0"
             id="path845"
             d="m 94.536423,93.697371 c 5.162287,-2.966949 10.934607,-4.713837 19.624137,-0.626295 l 6.51163,37.553644 -29.934186,1.87088 z"
             style="fill:#ffffff;stroke:#000000;stroke-width:0.620996;stroke-linecap:butt;stroke-linejoin:miter;stroke-dasharray:none;stroke-opacity:1" /><path
             sodipodi:nodetypes="szzsccccccccczsccs"
             inkscape:connector-curvature="0"
             id="path839"
             d="m 51.321568,156.74423 c 0.0696,-4.73353 -1.503345,-6.20453 0.417533,-14.19598 1.920878,-7.99145 10.892836,-24.8993 15.031257,-31.73219 4.138421,-6.83289 4.265758,-7.72062 7.724394,-10.22947 5.718223,-4.147922 20.041671,-6.889218 20.041671,-6.889218 l 7.306867,35.698718 9.81206,36.11624 -5.84548,26.72185 -36.743072,-22.33779 4.384118,-7.098 1.878906,-7.09798 c 0.503509,-5.08031 0.518725,-10.13192 0.417536,-15.2398 l -0.417536,-9.81193 c 0,0 -3.913991,8.93389 -4.680806,13.96082 -0.766815,5.02693 -1.680806,10.7949 -1.373449,14.84866 0.168437,2.22153 0.208767,6.68047 0.208767,6.68047 l -18.162766,-5.01035 c 0,0 -0.02148,-2.92286 0,-4.38405 z"
             style="fill:#ffffff;stroke:#000000;stroke-width:0.620996;stroke-linecap:butt;stroke-linejoin:miter;stroke-dasharray:none;stroke-opacity:1" /><path
             sodipodi:nodetypes="ccccccccccscccccc"
             inkscape:connector-curvature="0"
             id="path841"
             d="m 84.933123,197.24451 c -0.41753,-1.67011 -1.8789,-17.11867 -1.8789,-17.11867 l 6.26302,-20.66768 13.987407,-37.16006 10.85591,-29.227022 c 0,0 12.64627,1.501756 16.34236,3.439979 19.49346,8.305813 20.04452,47.613993 20.07376,68.767253 -5.8763,-0.9236 -11.76353,-1.1255 -19.81684,-2.08366 1.23088,-10.42041 1.22989,-20.12478 0.10212,-28.37068 l -3.13151,16.07485 c 0,0 0.18727,3.22618 0.25004,5.21911 0.0608,1.92879 0.16749,5.21912 0.16749,5.21912 l 0.6263,7.09798 4.38412,7.30675 -1.87891,4.38406 -24.00826,7.93304 z"
             style="fill:#ffffff;stroke:#000000;stroke-width:0.620996;stroke-linecap:butt;stroke-linejoin:miter;stroke-dasharray:none;stroke-opacity:1" /><path
             sodipodi:nodetypes="ccccccccccccccccccccc"
             inkscape:connector-curvature="0"
             id="path843"
             d="m 73.450916,162.79839 5.427952,6.4717 -9.185767,5.01035 -8.453996,9.38339 1.252604,4.80159 c 9.339169,-11.9895 16.387159,-19.19533 32.024942,-10.95464 7.720609,-0.30643 12.095379,-1.02096 18.182539,-1.14269 10.88651,3.18353 15.94266,6.26144 23.17319,15.23979 l 2.92274,-2.9227 c -7.51563,-8.55934 -12.56712,-11.72384 -21.29428,-14.61351 l 8.55947,-2.08764 2.71397,-3.549 -0.6263,-7.09798 -7.7244,4.59281 -8.76823,-0.41753 -14.196177,0.41753 -7.93317,-0.62629 -3.96658,-2.71394 -6.471786,-2.71394 -3.757815,-4.17528 z"
             style="fill:#000000;stroke:#000000;stroke-width:0.620996;stroke-linecap:butt;stroke-linejoin:miter;stroke-dasharray:none;stroke-opacity:1" /></g></g><g
         id="g6655"
         transform="translate(-116.19461,372.54084)"><circle
           style="opacity:1;fill:#b6cbaa;fill-opacity:1;fill-rule:evenodd;stroke:#000000;stroke-width:0.620996;stroke-linejoin:round;stroke-miterlimit:4;stroke-dasharray:none;stroke-dashoffset:0"
           id="circle6643"
           cx="102.43155"
           cy="149.96727"
           r="72.193451" /><g
           id="g6653"
           style="stroke-width:0.620996;stroke-dasharray:none"><path
             sodipodi:nodetypes="ccccc"
             inkscape:connector-curvature="0"
             id="path6645"
             d="m 94.536423,93.697371 c 5.162287,-2.966949 10.934607,-4.713837 19.624137,-0.626295 l 6.51163,37.553644 -29.934186,1.87088 z"
             style="fill:#ffffff;stroke:#000000;stroke-width:0.620996;stroke-linecap:butt;stroke-linejoin:miter;stroke-dasharray:none;stroke-opacity:1" /><path
             sodipodi:nodetypes="szzsccccccccczsccs"
             inkscape:connector-curvature="0"
             id="path6647"
             d="m 51.321568,156.74423 c 0.0696,-4.73353 -1.503345,-6.20453 0.417533,-14.19598 1.920878,-7.99145 10.892836,-24.8993 15.031257,-31.73219 4.138421,-6.83289 4.265758,-7.72062 7.724394,-10.22947 5.718223,-4.147922 20.041671,-6.889218 20.041671,-6.889218 l 7.306867,35.698718 9.81206,36.11624 -5.84548,26.72185 -36.743072,-22.33779 4.384118,-7.098 1.878906,-7.09798 c 0.503509,-5.08031 0.518725,-10.13192 0.417536,-15.2398 l -0.417536,-9.81193 c 0,0 -3.913991,8.93389 -4.680806,13.96082 -0.766815,5.02693 -1.680806,10.7949 -1.373449,14.84866 0.168437,2.22153 0.208767,6.68047 0.208767,6.68047 l -18.162766,-5.01035 c 0,0 -0.02148,-2.92286 0,-4.38405 z"
             style="fill:#ffffff;stroke:#000000;stroke-width:0.620996;stroke-linecap:butt;stroke-linejoin:miter;stroke-dasharray:none;stroke-opacity:1" /><path
             sodipodi:nodetypes="ccccccccccscccccc"
             inkscape:connector-curvature="0"
             id="path6649"
             d="m 84.933123,197.24451 c -0.41753,-1.67011 -1.8789,-17.11867 -1.8789,-17.11867 l 6.26302,-20.66768 13.987407,-37.16006 10.85591,-29.227022 c 0,0 12.64627,1.501756 16.34236,3.439979 19.49346,8.305813 20.04452,47.613993 20.07376,68.767253 -5.8763,-0.9236 -11.76353,-1.1255 -19.81684,-2.08366 1.23088,-10.42041 1.22989,-20.12478 0.10212,-28.37068 l -3.13151,16.07485 c 0,0 0.18727,3.22618 0.25004,5.21911 0.0608,1.92879 0.16749,5.21912 0.16749,5.21912 l 0.6263,7.09798 4.38412,7.30675 -1.87891,4.38406 -24.00826,7.93304 z"
             style="fill:#ffffff;stroke:#000000;stroke-width:0.620996;stroke-linecap:butt;stroke-linejoin:miter;stroke-dasharray:none;stroke-opacity:1" /><path
             sodipodi:nodetypes="ccccccccccccccccccccc"
             inkscape:connector-curvature="0"
             id="path6651"
             d="m 73.450916,162.79839 5.427952,6.4717 -9.185767,5.01035 -8.453996,9.38339 1.252604,4.80159 c 9.339169,-11.9895 16.387159,-19.19533 32.024942,-10.95464 7.720609,-0.30643 12.095379,-1.02096 18.182539,-1.14269 10.88651,3.18353 15.94266,6.26144 23.17319,15.23979 l 2.92274,-2.9227 c -7.51563,-8.55934 -12.56712,-11.72384 -21.29428,-14.61351 l 8.55947,-2.08764 2.71397,-3.549 -0.6263,-7.09798 -7.7244,4.59281 -8.76823,-0.41753 -14.196177,0.41753 -7.93317,-0.62629 -3.96658,-2.71394 -6.471786,-2.71394 -3.757815,-4.17528 z"
             style="fill:#000000;stroke:#000000;stroke-width:0.620996;stroke-linecap:butt;stroke-linejoin:miter;stroke-dasharray:none;stroke-opacity:1" /></g></g></g></g></svg>
