<?xml version="1.0" encoding="UTF-8" standalone="no"?>
<!-- Created with Inkscape (http://www.inkscape.org/) -->

<svg
   width="210mm"
   height="297mm"
   viewBox="0 0 210 296.99999"
   version="1.1"
   id="svg5"
   xml:space="preserve"
   inkscape:version="1.2.2 (b0a8486541, 2022-12-01)"
   sodipodi:docname="plakat.svg"
   inkscape:export-filename="karte-back.png"
   inkscape:export-xdpi="503.04388"
   inkscape:export-ydpi="503.04388"
   xmlns:inkscape="http://www.inkscape.org/namespaces/inkscape"
   xmlns:sodipodi="http://sodipodi.sourceforge.net/DTD/sodipodi-0.dtd"
   xmlns="http://www.w3.org/2000/svg"
   xmlns:svg="http://www.w3.org/2000/svg"><sodipodi:namedview
     id="namedview7"
     pagecolor="#ffffff"
     bordercolor="#666666"
     borderopacity="1.0"
     inkscape:showpageshadow="2"
     inkscape:pageopacity="1"
     inkscape:pagecheckerboard="0"
     inkscape:deskcolor="#d1d1d1"
     inkscape:document-units="mm"
     showgrid="false"
     inkscape:zoom="0.49345552"
     inkscape:cx="486.36603"
     inkscape:cy="354.6419"
     inkscape:window-width="1400"
     inkscape:window-height="761"
     inkscape:window-x="0"
     inkscape:window-y="32"
     inkscape:window-maximized="1"
     inkscape:current-layer="layer1"
     showguides="true"><sodipodi:guide
       position="-29.435663,252.15313"
       orientation="-1,0"
       id="guide248"
       inkscape:label=""
       inkscape:locked="false"
       inkscape:color="rgb(0,134,229)" /><sodipodi:guide
       position="-25.435663,291.19699"
       orientation="-1,0"
       id="guide310"
       inkscape:label=""
       inkscape:locked="false"
       inkscape:color="rgb(0,134,229)" /><inkscape:page
       x="0"
       y="0"
       width="210"
       height="297"
       id="page5725" /><inkscape:page
       x="64.629433"
       y="70.773422"
       width="0"
       height="0"
       id="page5884" /></sodipodi:namedview><defs
     id="defs2"><rect
       x="204.51785"
       y="-29.431761"
       width="117.62024"
       height="418.83719"
       id="rect1055" /><rect
       x="204.51785"
       y="-29.431761"
       width="117.62024"
       height="418.83719"
       id="rect1055-7" /><filter
       inkscape:collect="always"
       style="color-interpolation-filters:sRGB"
       id="filter3442"
       x="-0.078018485"
       y="-0.13860703"
       width="1.1560387"
       height="1.2772127"><feGaussianBlur
         inkscape:collect="always"
         stdDeviation="1.8040065"
         id="feGaussianBlur3444" /></filter></defs><g
     inkscape:groupmode="layer"
     id="layer2"
     inkscape:label="markers"
     transform="translate(-30.435663,0.80301576)" /><g
     inkscape:groupmode="layer"
     id="layer4"
     inkscape:label="background"
     transform="translate(-30.435663,0.80301576)" /><g
     inkscape:label="Layer 1"
     inkscape:groupmode="layer"
     id="layer1"
     transform="translate(-30.435663,0.80301576)"><path
       style="fill:#000000;stroke-width:0.033486"
       d="m 155.41337,138.39102 c -0.8109,-0.0651 -1.84323,-0.23515 -2.71936,-0.448 -0.18696,-0.0454 -0.96376,-0.2455 -1.72623,-0.44462 -1.8007,-0.47026 -2.62202,-0.66189 -4.15124,-0.96859 -1.47415,-0.29565 -2.11273,-0.44948 -2.83629,-0.68324 -0.90994,-0.29397 -1.63265,-0.69523 -2.16094,-1.19979 -0.51906,-0.49573 -0.72645,-1.11754 -0.63482,-1.9033 0.0206,-0.17686 0.0621,-0.38468 0.0922,-0.46182 0.0301,-0.0772 0.0669,-0.27387 0.0818,-0.43716 0.0317,-0.34766 0.10983,-0.69373 0.20243,-0.89686 0.0669,-0.14678 0.21313,-0.24121 0.37349,-0.24121 0.0924,0 0.0903,0.0905 -0.0159,0.69274 -0.10988,0.62329 -0.10946,0.6419 0.0159,0.69228 0.14879,0.0598 0.17388,0.10439 0.22739,0.40415 0.0268,0.1499 0.0839,0.34677 0.12696,0.43748 0.25558,0.53837 0.98339,1.05697 1.80527,1.28634 0.16826,0.047 0.71604,0.16671 1.21729,0.26613 1.28245,0.25433 2.07167,0.45392 4.49336,1.13632 1.64306,0.46299 2.26614,0.62228 2.95731,0.75604 1.23174,0.23837 2.26132,0.3261 3.12388,0.26617 0.65965,-0.0459 1.06868,-0.14056 1.5134,-0.35052 0.2935,-0.13856 0.36523,-0.1924 0.73669,-0.55295 0.29981,-0.291 0.48128,-0.50242 0.66846,-0.7788 0.4398,-0.64934 0.90002,-1.56571 1.33529,-2.65872 0.34639,-0.86981 3.27831,-9.37599 3.94232,-11.43758 0.19766,-0.61364 0.64295,-1.93479 0.98956,-2.93588 1.13682,-3.28348 1.20516,-3.48986 1.39398,-4.20898 0.40541,-1.544 0.50294,-2.65403 0.3326,-3.78569 -0.13664,-0.90775 -0.47839,-1.62654 -1.05593,-2.22088 -0.95912,-0.98699 -2.36108,-1.56447 -5.36605,-2.21031 -0.43,-0.0924 -1.43191,-0.32262 -2.22648,-0.51157 -1.58262,-0.37636 -2.20934,-0.50489 -2.95823,-0.60667 -1.6378,-0.2226 -2.81131,-0.16869 -3.97613,0.18267 -0.66684,0.20115 -1.05458,0.41541 -1.50127,0.82957 -0.43194,0.40047 -0.84862,1.05058 -1.1671,1.8209 -0.37014,0.89531 -0.58269,1.87705 -0.95074,4.39131 -0.20167,1.37773 -0.34133,2.1424 -0.5838,3.19647 -0.16262,0.70692 -0.29087,1.16372 -0.94247,3.35665 -0.70293,2.36574 -1.69899,5.92091 -2.12797,7.5952 -0.48161,1.87975 -0.94313,3.98441 -1.22161,5.57089 -0.14632,0.83356 -0.17296,0.8996 -0.37896,0.93958 -0.19382,0.0376 -0.21335,0.008 -0.18834,-0.28926 0.0124,-0.14683 0.0618,-0.42718 0.10974,-0.623 0.0481,-0.1963 0.0778,-0.39239 0.0663,-0.43707 -0.0118,-0.0455 -0.0811,-0.11785 -0.15808,-0.16502 -0.0951,-0.0583 -0.13201,-0.10123 -0.12045,-0.14022 0.009,-0.0309 0.0949,-0.44959 0.19049,-0.93039 0.59352,-2.98493 1.49701,-6.39687 3.3543,-12.6672 0.71409,-2.41083 0.88736,-3.20475 1.2325,-5.64743 0.26948,-1.90725 0.59213,-3.34125 0.95662,-4.25165 0.1756,-0.43859 0.49136,-1.05329 0.68857,-1.34046 0.74654,-1.08706 1.97761,-1.77675 3.59208,-2.01242 0.30697,-0.0448 0.61716,-0.057 1.44465,-0.0566 0.97864,4.3e-4 1.09737,0.007 1.66561,0.0915 0.90234,0.13428 1.48227,0.25055 2.9743,0.59636 0.73847,0.17115 1.93924,0.44003 2.66837,0.5975 0.72913,0.15748 1.55881,0.35108 1.84374,0.43024 0.97159,0.26989 2.00756,0.69704 2.66202,1.0976 0.17862,0.10931 0.36982,0.20924 0.42491,0.22207 0.0551,0.0128 0.36018,0.19066 0.67801,0.3952 0.31782,0.20455 0.78436,0.47945 1.03675,0.61089 0.25239,0.13144 0.55832,0.29925 0.67984,0.3729 0.2803,0.16989 0.96732,0.83615 1.11597,1.08225 0.26579,0.43998 0.47944,1.04786 0.57183,1.62689 0.1703,1.06732 -0.16886,2.80706 -0.92797,4.76 -0.62024,1.59567 -0.92706,2.49145 -1.86099,5.43314 -0.95678,3.01371 -1.34792,4.13629 -2.31812,6.653 -0.36147,0.93767 -0.84141,2.22914 -1.06652,2.86991 -0.65851,1.87438 -0.80872,2.28554 -1.06441,2.91338 -0.76217,1.87149 -1.79702,3.32821 -2.85445,4.01808 -0.67814,0.44242 -1.49828,0.74071 -2.38026,0.86572 -0.43525,0.0617 -1.45193,0.0859 -1.94507,0.0464 z m 1.43026,-0.19942 c 1.10954,-0.10753 2.02582,-0.53798 2.87263,-1.34949 0.42352,-0.40587 0.64249,-0.68321 1.00272,-1.27002 0.74365,-1.21139 1.09601,-2.03526 2.08805,-4.88215 0.43282,-1.24209 0.55403,-1.56893 1.05203,-2.83693 0.98674,-2.51243 1.79325,-4.84494 2.68614,-7.76856 0.36681,-1.20108 0.91149,-2.78086 1.26814,-3.6781 0.6929,-1.74318 1.09713,-3.07862 1.21294,-4.00713 0.0519,-0.41608 0.0427,-1.24427 -0.0182,-1.64262 -0.1533,-1.00196 -0.64868,-1.82949 -1.4113,-2.3576 -0.27666,-0.19158 -0.67938,-0.42972 -0.69731,-0.41232 -0.008,0.007 0.0691,0.16791 0.17022,0.35692 0.45339,0.84735 0.63332,1.75589 0.58416,2.94968 -0.0547,1.3279 -0.34048,2.51184 -1.21033,5.0141 -0.68811,1.97943 -1.4282,4.17384 -1.81903,5.39346 -0.19477,0.60779 -0.56982,1.72112 -0.83345,2.47406 -0.26363,0.75294 -0.98333,2.82965 -1.59934,4.61491 -0.616,1.78526 -1.23528,3.52947 -1.37618,3.87603 -0.31773,0.78154 -0.91831,1.96782 -1.22916,2.42793 -0.67888,1.00483 -1.38757,1.58052 -2.31281,1.87876 -0.54767,0.17654 -1.08515,0.24504 -1.92811,0.24573 -1.63776,0.001 -2.98353,-0.26318 -6.86637,-1.34966 -1.57168,-0.43978 -2.094,-0.56914 -3.13064,-0.77535 -0.93874,-0.18674 -1.26422,-0.26913 -1.81119,-0.45848 -0.46896,-0.16234 -0.88155,-0.35138 -1.14241,-0.52343 -0.11199,-0.0739 -0.20866,-0.1294 -0.21482,-0.12342 -0.0229,0.0222 0.12913,0.26954 0.25468,0.4144 0.17292,0.19953 0.34707,0.34843 0.66969,0.57258 0.93059,0.64657 1.92513,0.95487 4.69484,1.45537 1.26725,0.22899 1.60701,0.30843 3.45019,0.80661 2.26492,0.61217 3.09137,0.79639 4.07445,0.90818 0.77077,0.0876 1.01762,0.0952 1.51983,0.0466 z m -7.28608,-3.79107 c -0.59587,-0.15151 -1.25471,-0.63493 -1.47454,-1.08194 -0.20092,-0.40853 -0.17257,-0.75508 0.0912,-1.11511 0.0648,-0.0885 0.11784,-0.17013 0.11784,-0.18148 0,-0.0113 -0.0592,-0.0298 -0.13156,-0.0411 -0.17173,-0.0266 -0.22756,-0.0892 -0.17152,-0.19208 0.15563,-0.28581 0.64322,-0.76744 0.90935,-0.89822 0.53517,-0.26299 1.1332,-0.23976 1.59264,0.0619 0.32192,0.21134 0.65794,0.7672 0.79211,1.31031 0.12489,0.5056 0.0759,1.23696 -0.1077,1.60657 -0.11002,0.22151 -0.38485,0.47554 -0.58671,0.54229 -0.2285,0.0755 -0.71055,0.0703 -1.03111,-0.0112 z m 0.69627,-0.33762 c 0.2352,-0.24912 0.35103,-0.79375 0.28239,-1.32775 -0.0776,-0.60365 -0.23575,-1.03665 -0.50276,-1.37644 -0.1261,-0.16047 -0.33276,-0.32242 -0.41142,-0.32242 -0.11861,0 -0.74074,0.53159 -0.69893,0.59722 0.0103,0.0163 0.0704,0.0295 0.13356,0.0295 0.14764,0 0.28544,0.0512 0.31088,0.11556 0.0134,0.0339 -0.0649,0.12975 -0.23749,0.29089 -0.29978,0.27982 -0.39428,0.45146 -0.39536,0.71811 -0.001,0.40948 0.40098,0.90548 0.96802,1.19249 0.34425,0.17424 0.44981,0.1901 0.55111,0.0828 z m -1.57622,-2.16399 c 0.0762,-0.0653 0.1364,-0.16916 0.11187,-0.19296 -0.0258,-0.0251 -0.22911,0.10271 -0.32804,0.2063 l -0.0844,0.0884 0.11897,-0.024 c 0.0654,-0.0132 0.14715,-0.0482 0.1816,-0.0777 z m 8.24841,-0.23449 c -3.50485,-0.69192 -6.64673,-1.49312 -9.83058,-2.50687 -1.32676,-0.42245 -2.58544,-0.85442 -2.63844,-0.9055 -0.0373,-0.0359 -0.027,-0.18176 0.0602,-0.85289 0.25822,-1.98745 0.5264,-3.08905 1.83699,-7.54563 0.84949,-2.88865 1.05561,-3.63935 1.31218,-4.77905 0.33036,-1.4675 0.51891,-2.62691 0.59081,-3.63277 0.0411,-0.57431 0.0426,-2.0521 0.003,-2.5547 -0.0158,-0.19858 -0.0208,-0.38097 -0.0111,-0.40533 0.0278,-0.0704 0.19832,-0.14079 0.34114,-0.14079 0.10158,0 0.15346,-0.0225 0.22921,-0.0992 0.14294,-0.14479 0.25501,-0.16236 0.82252,-0.12895 1.55844,0.0917 3.34953,0.44824 5.70373,1.13528 1.49122,0.43517 1.89809,0.50682 3.65414,0.64339 1.46562,0.11399 2.12853,0.18975 3.05927,0.34963 1.34161,0.23045 2.04523,0.44812 2.48053,0.76735 0.31121,0.22822 0.5402,0.55525 0.492,0.70263 -0.0254,0.0779 -0.20671,0.15951 -0.35405,0.15951 -0.1159,0 -0.11656,7.1e-4 -0.0676,0.10566 0.0294,0.0628 -0.006,0.18291 -0.20775,0.70254 -0.81057,2.0891 -1.77745,4.92406 -2.45826,7.20777 -0.55965,1.87729 -1.88465,6.73132 -2.85444,10.45703 -0.196,0.75295 -0.36602,1.39295 -0.37784,1.42225 -0.0759,0.18803 -0.4177,0.16861 -1.78533,-0.10138 z m 1.3231,-0.04 c 0.0949,-0.0213 0.17255,-0.0493 0.17255,-0.0622 0,-0.013 -0.0862,-0.0339 -0.19158,-0.0468 -0.19367,-0.0234 -0.24845,0 -0.2498,0.10634 -6.5e-4,0.0512 0.0496,0.0517 0.26883,0.003 z m 0.13823,-1.66846 c 0.63912,-2.45281 1.96413,-7.34762 2.45341,-9.06332 0.76217,-2.67259 1.69698,-5.46928 2.729,-8.1644 0.19647,-0.51309 0.28275,-0.69757 0.35763,-0.76465 0.0836,-0.0748 0.0912,-0.0944 0.0498,-0.12774 -0.0783,-0.063 -0.0574,-0.11408 0.0713,-0.17361 0.14413,-0.0667 0.13183,-0.10575 -0.0981,-0.31143 -0.39727,-0.35538 -1.10073,-0.55388 -2.70742,-0.76396 -0.91039,-0.11904 -1.78522,-0.20842 -2.9403,-0.30042 -1.35948,-0.10828 -1.83265,-0.20169 -3.58616,-0.70797 -0.95203,-0.27487 -2.25148,-0.59432 -2.9419,-0.72323 -1.00617,-0.18786 -2.62984,-0.36545 -2.7019,-0.29552 -0.0192,0.0186 -0.0188,0.19706 7.1e-4,0.45835 0.0683,0.90564 0.0331,2.21968 -0.0873,3.26484 -0.15645,1.35834 -0.65501,3.61291 -1.22184,5.52541 -1.31013,4.42037 -1.70447,5.80715 -1.9323,6.79543 -0.20703,0.89804 -0.37614,1.80645 -0.48065,2.5818 -0.0471,0.34896 -0.0923,0.67347 -0.10048,0.72113 -0.008,0.0477 0.004,0.10868 0.0258,0.13559 0.0409,0.0491 1.34953,0.50054 2.55621,0.88184 2.25071,0.71117 5.29111,1.51991 7.51223,1.99823 0.97754,0.21052 2.46231,0.50347 2.56936,0.50696 0.0879,0.003 0.0884,10e-4 0.4726,-1.47333 z m 18.4819,-19.25962 c -0.20072,-0.10562 -0.18083,-0.31282 0.0407,-0.424 0.28438,-0.14271 3.88226,-1.25599 4.32484,-1.33822 0.19964,-0.0371 0.37888,0.009 0.45089,0.11546 0.15183,0.22488 0.0144,0.32091 -0.77832,0.54377 -0.88154,0.24783 -2.20377,0.65439 -3.00231,0.92313 -0.71115,0.23934 -0.87025,0.26696 -1.03581,0.17986 z m -34.37283,-2.70096 c -0.0561,-0.0253 -0.22434,-0.15173 -0.37391,-0.2809 -0.55981,-0.48349 -1.1584,-0.81093 -2.01952,-1.10474 -0.43321,-0.14782 -1.03025,-0.3757 -1.60912,-0.61419 -0.14489,-0.0597 -0.26344,-0.12677 -0.26344,-0.14906 0,-0.0601 0.22886,-0.1247 0.44189,-0.12479 0.15549,-7e-5 0.29282,0.0423 0.81581,0.25177 0.34587,0.13851 0.95434,0.37079 1.35216,0.51618 0.39781,0.14539 0.8608,0.3347 1.02885,0.42069 0.34863,0.17839 0.92151,0.58654 1.1688,0.83274 l 0.16761,0.16687 -0.15061,0.0663 c -0.17468,0.0769 -0.41253,0.085 -0.55852,0.0192 z m 27.86532,-7.23303 c -0.1187,-0.0573 -0.16162,-0.13628 -0.12874,-0.2368 0.0114,-0.0348 0.19979,-0.21785 0.41869,-0.40676 0.2189,-0.188918 0.72015,-0.639178 1.11388,-1.000564 0.78522,-0.72071 1.09107,-0.98781 1.47673,-1.289624 0.44896,-0.35134 0.4927,-0.37358 0.73491,-0.37358 0.18839,0 0.22919,0.0117 0.32262,0.0927 0.10003,0.0867 0.10392,0.0982 0.06,0.17755 -0.0258,0.0466 -0.22284,0.222334 -0.43784,0.390414 -0.48531,0.37939 -0.80124,0.6532 -1.58062,1.369876 -0.74483,0.684908 -1.32482,1.189778 -1.46166,1.272358 -0.1255,0.0757 -0.36608,0.0778 -0.51799,0.004 z m -22.44858,-1.027168 c -0.20595,-0.12675 -1.38429,-1.248076 -1.78945,-1.702876 -0.49862,-0.559694 -1.16287,-1.443404 -1.16287,-1.547054 0,-0.056 0.16133,-0.1082 0.4324,-0.13991 0.24051,-0.0281 0.28916,0.009 0.60548,0.45675 0.60263,0.85382 1.16663,1.481584 2.05427,2.286514 0.35675,0.323516 0.64329,0.604146 0.63675,0.623626 -0.0193,0.0575 -0.23058,0.11402 -0.43352,0.11603 -0.15165,0.001 -0.21915,-0.0168 -0.34306,-0.0931 z"
       id="path3123"
       sodipodi:nodetypes="cssssssssssssssssssssssssssssssssssssssssscsssssssssccssssssssssssssssscccsssssssssccsssssssscsssssssssscccssscssssssccsssssssccssssssccssssscsssccsssssssssccssssscscscccssssssssssscssssscsssccsssssssssssssssssscssscssssssssssccssssssscs" /><ellipse
       style="opacity:0.47186;fill:#b6cbaa;fill-opacity:1;fill-rule:evenodd;stroke:#000000;stroke-width:0.357986;stroke-linejoin:round;stroke-miterlimit:4;stroke-dasharray:none;stroke-dashoffset:0"
       id="circle6657"
       cx="22.423897"
       cy="-35.095295"
       rx="124.96038"
       ry="94.270363" /><g
       id="g6667"
       style="stroke-width:0.620996;stroke-dasharray:none"
       transform="matrix(0.35717999,0,0,0.36703133,29.976039,-22.663446)"><path
         sodipodi:nodetypes="ccccc"
         inkscape:connector-curvature="0"
         id="path6659"
         d="m 94.536423,93.697371 c 5.162287,-2.966949 10.934607,-4.713837 19.624137,-0.626295 l 6.51163,37.553644 -29.934186,1.87088 z"
         style="fill:#ffffff;stroke:#000000;stroke-width:0.620996;stroke-linecap:butt;stroke-linejoin:miter;stroke-dasharray:none;stroke-opacity:1" /><path
         sodipodi:nodetypes="szzsccccccccczsccs"
         inkscape:connector-curvature="0"
         id="path6661"
         d="m 51.321568,156.74423 c 0.0696,-4.73353 -1.503345,-6.20453 0.417533,-14.19598 1.920878,-7.99145 10.892836,-24.8993 15.031257,-31.73219 4.138421,-6.83289 4.265758,-7.72062 7.724394,-10.22947 5.718223,-4.147922 20.041671,-6.889218 20.041671,-6.889218 l 7.306867,35.698718 9.81206,36.11624 -5.84548,26.72185 -36.743072,-22.33779 4.384118,-7.098 1.878906,-7.09798 c 0.503509,-5.08031 0.518725,-10.13192 0.417536,-15.2398 l -0.417536,-9.81193 c 0,0 -3.913991,8.93389 -4.680806,13.96082 -0.766815,5.02693 -1.680806,10.7949 -1.373449,14.84866 0.168437,2.22153 0.208767,6.68047 0.208767,6.68047 l -18.162766,-5.01035 c 0,0 -0.02148,-2.92286 0,-4.38405 z"
         style="fill:#ffffff;stroke:#000000;stroke-width:0.620996;stroke-linecap:butt;stroke-linejoin:miter;stroke-dasharray:none;stroke-opacity:1" /><path
         sodipodi:nodetypes="ccccccccccscccccc"
         inkscape:connector-curvature="0"
         id="path6663"
         d="m 84.933123,197.24451 c -0.41753,-1.67011 -1.8789,-17.11867 -1.8789,-17.11867 l 6.26302,-20.66768 13.987407,-37.16006 10.85591,-29.227022 c 0,0 12.64627,1.501756 16.34236,3.439979 19.49346,8.305813 20.04452,47.613993 20.07376,68.767253 -5.8763,-0.9236 -11.76353,-1.1255 -19.81684,-2.08366 1.23088,-10.42041 1.22989,-20.12478 0.10212,-28.37068 l -3.13151,16.07485 c 0,0 0.18727,3.22618 0.25004,5.21911 0.0608,1.92879 0.16749,5.21912 0.16749,5.21912 l 0.6263,7.09798 4.38412,7.30675 -1.87891,4.38406 -24.00826,7.93304 z"
         style="fill:#ffffff;stroke:#000000;stroke-width:0.620996;stroke-linecap:butt;stroke-linejoin:miter;stroke-dasharray:none;stroke-opacity:1" /><path
         sodipodi:nodetypes="ccccccccccccccccccccc"
         inkscape:connector-curvature="0"
         id="path6665"
         d="m 73.450916,162.79839 5.427952,6.4717 -9.185767,5.01035 -8.453996,9.38339 1.252604,4.80159 c 9.339169,-11.9895 16.387159,-19.19533 32.024942,-10.95464 7.720609,-0.30643 12.095379,-1.02096 18.182539,-1.14269 10.88651,3.18353 15.94266,6.26144 23.17319,15.23979 l 2.92274,-2.9227 c -7.51563,-8.55934 -12.56712,-11.72384 -21.29428,-14.61351 l 8.55947,-2.08764 2.71397,-3.549 -0.6263,-7.09798 -7.7244,4.59281 -8.76823,-0.41753 -14.196177,0.41753 -7.93317,-0.62629 -3.96658,-2.71394 -6.471786,-2.71394 -3.757815,-4.17528 z"
         style="fill:#000000;stroke:#000000;stroke-width:0.620996;stroke-linecap:butt;stroke-linejoin:miter;stroke-dasharray:none;stroke-opacity:1" /></g><text
       xml:space="preserve"
       transform="matrix(0.26458333,0,0,0.26458333,-187.41044,-20.465402)"
       id="text1053"
       style="font-size:10.6667px;line-height:1.25;font-family:'Roboto Mono';-inkscape-font-specification:'Roboto Mono';white-space:pre;shape-inside:url(#rect1055);display:inline;opacity:1" /><text
       xml:space="preserve"
       style="font-size:2.82222px;line-height:1.25;font-family:'Noto Sans';-inkscape-font-specification:'Noto Sans';opacity:1;stroke-width:0.264583"
       x="-158.78432"
       y="11.205936"
       id="text1121"><tspan
         sodipodi:role="line"
         id="tspan1119"
         style="font-size:2.82222px;stroke-width:0.264583"
         x="-158.78432"
         y="11.205936" /></text><text
       xml:space="preserve"
       style="font-style:normal;font-variant:normal;font-weight:bold;font-stretch:normal;font-size:13.6186px;line-height:1.25;font-family:'Noto Looped Thai';-inkscape-font-specification:'Noto Looped Thai Bold';text-align:end;text-anchor:end;opacity:1;stroke-width:0.48062"
       x="217.43932"
       y="35.171413"
       id="text441"><tspan
         sodipodi:role="line"
         style="font-style:normal;font-variant:normal;font-weight:bold;font-stretch:normal;font-size:13.6186px;font-family:'Noto Looped Thai';-inkscape-font-specification:'Noto Looped Thai Bold';text-align:end;text-anchor:end;stroke-width:0.48062"
         x="217.43932"
         y="35.171413"
         id="tspan1051">Fit für deine </tspan><tspan
         sodipodi:role="line"
         style="font-style:normal;font-variant:normal;font-weight:bold;font-stretch:normal;font-size:13.6186px;font-family:'Noto Looped Thai';-inkscape-font-specification:'Noto Looped Thai Bold';text-align:end;text-anchor:end;stroke-width:0.48062"
         x="217.43932"
         y="52.244034"
         id="tspan1657">nächste Prüfung?</tspan><tspan
         sodipodi:role="line"
         style="font-style:normal;font-variant:normal;font-weight:bold;font-stretch:normal;font-size:13.6186px;font-family:'Noto Looped Thai';-inkscape-font-specification:'Noto Looped Thai Bold';text-align:end;text-anchor:end;stroke-width:0.48062"
         x="217.43932"
         y="69.267288"
         id="tspan1063" /><tspan
         sodipodi:role="line"
         style="font-style:normal;font-variant:normal;font-weight:bold;font-stretch:normal;font-size:13.6186px;font-family:'Noto Looped Thai';-inkscape-font-specification:'Noto Looped Thai Bold';text-align:end;text-anchor:end;stroke-width:0.48062"
         x="217.43932"
         y="86.290535"
         id="tspan1085" /></text><text
       xml:space="preserve"
       style="font-size:10.3152px;line-height:1.25;font-family:'Noto Sans';-inkscape-font-specification:'Noto Sans';opacity:1;stroke-width:0.366873"
       x="61.504414"
       y="80.823898"
       id="text6892"><tspan
         sodipodi:role="line"
         style="font-size:10.3152px;stroke-width:0.366873"
         x="61.504414"
         y="80.823898"
         id="tspan6894">Bau dir deine Probeprüfung</tspan><tspan
         sodipodi:role="line"
         style="font-size:10.3152px;stroke-width:0.366873"
         x="61.504414"
         y="93.717896"
         id="tspan6967" /></text><text
       xml:space="preserve"
       style="font-size:10.6338px;line-height:1.25;font-family:'Noto Sans';-inkscape-font-specification:'Noto Sans';opacity:1;stroke-width:0.398768"
       x="84.045746"
       y="112.48481"
       id="text6900"><tspan
         sodipodi:role="line"
         style="stroke-width:0.398768"
         x="84.045746"
         y="112.48481"
         id="tspan4180">Lass sie</tspan><tspan
         sodipodi:role="line"
         style="stroke-width:0.398768"
         x="84.045746"
         y="125.77706"
         id="tspan4191">vorlesen</tspan></text><path
       d="m 94.848104,167.50116 h 2.774072 v 2.77405 h -2.774072 z m 2.774072,0 h 2.774054 v 2.77405 h -2.774054 z m 2.774054,0 h 2.77409 v 2.77405 h -2.77409 z m 2.77409,0 h 2.77406 v 2.77405 h -2.77406 z m 2.77406,0 h 2.77407 v 2.77405 h -2.77407 z m 2.77407,0 h 2.77409 v 2.77405 h -2.77409 z m 2.77409,0 h 2.77405 v 2.77405 h -2.77405 z m 5.54812,0 h 2.77408 v 2.77405 h -2.77408 z m 2.77408,0 h 2.77407 v 2.77405 h -2.77407 z m 2.77407,0 h 2.77405 v 2.77405 h -2.77405 z m 5.54812,0 h 2.77409 v 2.77405 h -2.77409 z m 2.77409,0 h 2.77406 v 2.77405 h -2.77406 z m 2.77406,0 h 2.77407 v 2.77405 h -2.77407 z m 2.77407,0 h 2.77405 v 2.77405 h -2.77405 z m 8.3222,0 h 2.77407 v 2.77405 h -2.77407 z m 2.77407,0 h 2.77405 v 2.77405 h -2.77405 z m 2.77405,0 h 2.77409 v 2.77405 h -2.77409 z m 5.54815,0 h 2.77407 v 2.77405 h -2.77407 z m 2.77407,0 h 2.77409 v 2.77405 h -2.77409 z m 2.77409,0 h 2.77405 v 2.77405 h -2.77405 z m 2.77405,0 h 2.77406 v 2.77405 h -2.77406 z m 2.77406,0 h 2.77409 v 2.77405 h -2.77409 z m 2.77409,0 h 2.77407 v 2.77405 h -2.77407 z m 2.77407,0 h 2.77405 v 2.77405 h -2.77405 z m -77.673946,2.77405 h 2.774072 v 2.77406 h -2.774072 z m 16.644436,0 h 2.77405 v 2.77406 h -2.77405 z m 5.54812,0 h 2.77408 v 2.77406 h -2.77408 z m 2.77408,0 h 2.77407 v 2.77406 h -2.77407 z m 2.77407,0 h 2.77405 v 2.77406 h -2.77405 z m 8.32221,0 h 2.77406 v 2.77406 h -2.77406 z m 8.32218,0 h 2.77409 v 2.77406 h -2.77409 z m 2.77409,0 h 2.77406 v 2.77406 h -2.77406 z m 8.32218,0 h 2.77409 v 2.77406 h -2.77409 z m 5.54815,0 h 2.77407 v 2.77406 h -2.77407 z m 16.64443,0 h 2.77405 v 2.77406 h -2.77405 z m -77.673946,2.77406 h 2.774072 v 2.77407 h -2.774072 z m 5.548126,0 h 2.77409 v 2.77407 h -2.77409 z m 2.77409,0 h 2.77406 v 2.77407 h -2.77406 z m 2.77406,0 h 2.77407 v 2.77407 h -2.77407 z m 5.54816,0 h 2.77405 v 2.77407 h -2.77405 z m 8.3222,0 h 2.77407 v 2.77407 h -2.77407 z m 5.54812,0 h 2.77407 v 2.77407 h -2.77407 z m 2.77407,0 h 2.77409 v 2.77407 h -2.77409 z m 11.09627,0 h 2.77409 v 2.77407 h -2.77409 z m 5.54815,0 h 2.77407 v 2.77407 h -2.77407 z m 5.54812,0 h 2.77409 v 2.77407 h -2.77409 z m 5.54815,0 h 2.77407 v 2.77407 h -2.77407 z m 5.54816,0 h 2.77405 v 2.77407 h -2.77405 z m 2.77405,0 h 2.77406 v 2.77407 h -2.77406 z m 2.77406,0 h 2.77409 v 2.77407 h -2.77409 z m 5.54816,0 h 2.77405 v 2.77407 h -2.77405 z m -77.673946,2.77407 h 2.774072 v 2.77409 h -2.774072 z m 5.548126,0 h 2.77409 v 2.77409 h -2.77409 z m 2.77409,0 h 2.77406 v 2.77409 h -2.77406 z m 2.77406,0 h 2.77407 v 2.77409 h -2.77407 z m 5.54816,0 h 2.77405 v 2.77409 h -2.77405 z m 5.54812,0 h 2.77408 v 2.77409 h -2.77408 z m 11.09627,0 h 2.77409 v 2.77409 h -2.77409 z m 5.54815,0 h 2.77407 v 2.77409 h -2.77407 z m 2.77407,0 h 2.77405 v 2.77409 h -2.77405 z m 5.54814,0 h 2.77406 v 2.77409 h -2.77406 z m 5.54813,0 h 2.77405 v 2.77409 h -2.77405 z m 8.3222,0 h 2.77407 v 2.77409 h -2.77407 z m 5.54816,0 h 2.77405 v 2.77409 h -2.77405 z m 2.77405,0 h 2.77406 v 2.77409 h -2.77406 z m 2.77406,0 h 2.77409 v 2.77409 h -2.77409 z m 5.54816,0 h 2.77405 v 2.77409 h -2.77405 z m -77.673946,2.77409 h 2.774072 v 2.77405 h -2.774072 z m 5.548126,0 h 2.77409 v 2.77405 h -2.77409 z m 2.77409,0 h 2.77406 v 2.77405 h -2.77406 z m 2.77406,0 h 2.77407 v 2.77405 h -2.77407 z m 5.54816,0 h 2.77405 v 2.77405 h -2.77405 z m 8.3222,0 h 2.77407 v 2.77405 h -2.77407 z m 2.77407,0 h 2.77405 v 2.77405 h -2.77405 z m 2.77405,0 h 2.77407 v 2.77405 h -2.77407 z m 2.77407,0 h 2.77409 v 2.77405 h -2.77409 z m 5.54815,0 h 2.77407 v 2.77405 h -2.77407 z m 5.54812,0 h 2.77409 v 2.77405 h -2.77409 z m 2.77409,0 h 2.77406 v 2.77405 h -2.77406 z m 2.77406,0 h 2.77407 v 2.77405 h -2.77407 z m 2.77407,0 h 2.77405 v 2.77405 h -2.77405 z m 8.3222,0 h 2.77407 v 2.77405 h -2.77407 z m 5.54816,0 h 2.77405 v 2.77405 h -2.77405 z m 2.77405,0 h 2.77406 v 2.77405 h -2.77406 z m 2.77406,0 h 2.77409 v 2.77405 h -2.77409 z m 5.54816,0 h 2.77405 v 2.77405 h -2.77405 z m -77.673946,2.77405 h 2.774072 v 2.77409 h -2.774072 z m 16.644436,0 h 2.77405 v 2.77409 h -2.77405 z m 13.87032,0 h 2.77407 v 2.77409 h -2.77407 z m 5.54816,0 h 2.77406 v 2.77409 h -2.77406 z m 5.54813,0 h 2.77405 v 2.77409 h -2.77405 z m 2.77405,0 h 2.77409 v 2.77409 h -2.77409 z m 8.32222,0 h 2.77405 v 2.77409 h -2.77405 z m 2.77405,0 h 2.77409 v 2.77409 h -2.77409 z m 5.54815,0 h 2.77407 v 2.77409 h -2.77407 z m 16.64443,0 h 2.77405 v 2.77409 h -2.77405 z m -77.673946,2.77409 h 2.774072 v 2.77406 h -2.774072 z m 2.774072,0 h 2.774054 v 2.77406 h -2.774054 z m 2.774054,0 h 2.77409 v 2.77406 h -2.77409 z m 2.77409,0 h 2.77406 v 2.77406 h -2.77406 z m 2.77406,0 h 2.77407 v 2.77406 h -2.77407 z m 2.77407,0 h 2.77409 v 2.77406 h -2.77409 z m 2.77409,0 h 2.77405 v 2.77406 h -2.77405 z m 5.54812,0 h 2.77408 v 2.77406 h -2.77408 z m 5.54815,0 h 2.77405 v 2.77406 h -2.77405 z m 5.54812,0 h 2.77409 v 2.77406 h -2.77409 z m 5.54815,0 h 2.77407 v 2.77406 h -2.77407 z m 5.54812,0 h 2.77409 v 2.77406 h -2.77409 z m 5.54815,0 h 2.77407 v 2.77406 h -2.77407 z m 5.54812,0 h 2.77409 v 2.77406 h -2.77409 z m 5.54815,0 h 2.77407 v 2.77406 h -2.77407 z m 2.77407,0 h 2.77409 v 2.77406 h -2.77409 z m 2.77409,0 h 2.77405 v 2.77406 h -2.77405 z m 2.77405,0 h 2.77406 v 2.77406 h -2.77406 z m 2.77406,0 h 2.77409 v 2.77406 h -2.77409 z m 2.77409,0 h 2.77407 v 2.77406 h -2.77407 z m 2.77407,0 h 2.77405 v 2.77406 h -2.77405 z m -55.48139,2.77406 h 2.77408 v 2.77407 h -2.77408 z m 5.54815,0 h 2.77405 v 2.77407 h -2.77405 z m 13.87034,0 h 2.77405 v 2.77407 h -2.77405 z m 2.77405,0 h 2.77409 v 2.77407 h -2.77409 z m 2.77409,0 h 2.77406 v 2.77407 h -2.77406 z m 5.54813,0 h 2.77405 v 2.77407 h -2.77405 z m 2.77405,0 h 2.77409 v 2.77407 h -2.77409 z m -55.481366,2.77407 h 2.774072 v 2.77409 h -2.774072 z m 5.548126,0 h 2.77409 v 2.77409 h -2.77409 z m 2.77409,0 h 2.77406 v 2.77409 h -2.77406 z m 5.54813,0 h 2.77409 v 2.77409 h -2.77409 z m 2.77409,0 h 2.77405 v 2.77409 h -2.77405 z m 2.77405,0 h 2.77407 v 2.77409 h -2.77407 z m 13.87034,0 h 2.77409 v 2.77409 h -2.77409 z m 2.77409,0 h 2.77406 v 2.77409 h -2.77406 z m 5.54813,0 h 2.77405 v 2.77409 h -2.77405 z m 2.77405,0 h 2.77409 v 2.77409 h -2.77409 z m 2.77409,0 h 2.77406 v 2.77409 h -2.77406 z m 2.77406,0 h 2.77407 v 2.77409 h -2.77407 z m 11.09627,0 h 2.77407 v 2.77409 h -2.77407 z m 8.32221,0 h 2.77406 v 2.77409 h -2.77406 z m 5.54815,0 h 2.77407 v 2.77409 h -2.77407 z m 2.77407,0 h 2.77405 v 2.77409 h -2.77405 z m -72.12582,2.77409 h 2.77409 v 2.77409 h -2.77409 z m 2.77409,0 h 2.77406 v 2.77409 h -2.77406 z m 2.77406,0 h 2.77407 v 2.77409 h -2.77407 z m 2.77407,0 h 2.77409 v 2.77409 h -2.77409 z m 8.32221,0 h 2.77408 v 2.77409 h -2.77408 z m 2.77408,0 h 2.77407 v 2.77409 h -2.77407 z m 8.32219,0 h 2.77409 v 2.77409 h -2.77409 z m 2.77409,0 h 2.77406 v 2.77409 h -2.77406 z m 2.77406,0 h 2.77407 v 2.77409 h -2.77407 z m 2.77407,0 h 2.77405 v 2.77409 h -2.77405 z m 11.09627,0 h 2.77405 v 2.77409 h -2.77405 z m 2.77405,0 h 2.77409 v 2.77409 h -2.77409 z m 2.77409,0 h 2.77406 v 2.77409 h -2.77406 z m 2.77406,0 h 2.77407 v 2.77409 h -2.77407 z m 2.77407,0 h 2.77409 v 2.77409 h -2.77409 z m 2.77409,0 h 2.77405 v 2.77409 h -2.77405 z m 11.09627,0 h 2.77405 v 2.77409 h -2.77405 z m -77.673946,2.77409 h 2.774072 v 2.77402 h -2.774072 z m 5.548126,0 h 2.77409 v 2.77402 h -2.77409 z m 11.09631,0 h 2.77405 v 2.77402 h -2.77405 z m 8.3222,0 h 2.77407 v 2.77402 h -2.77407 z m 2.77407,0 h 2.77405 v 2.77402 h -2.77405 z m 5.54812,0 h 2.77409 v 2.77402 h -2.77409 z m 2.77409,0 h 2.77406 v 2.77402 h -2.77406 z m 8.32218,0 h 2.77409 v 2.77402 h -2.77409 z m 2.77409,0 h 2.77406 v 2.77402 h -2.77406 z m 8.32218,0 h 2.77409 v 2.77402 h -2.77409 z m 2.77409,0 h 2.77406 v 2.77402 h -2.77406 z m 13.87033,0 h 2.77409 v 2.77402 h -2.77409 z m 2.77409,0 h 2.77407 v 2.77402 h -2.77407 z m -63.8036,2.77402 h 2.77407 v 2.77407 h -2.77407 z m 8.32221,0 h 2.77407 v 2.77407 h -2.77407 z m 2.77407,0 h 2.77408 v 2.77407 h -2.77408 z m 5.54815,0 h 2.77405 v 2.77407 h -2.77405 z m 13.87034,0 h 2.77405 v 2.77407 h -2.77405 z m 13.87032,0 h 2.77409 v 2.77407 h -2.77409 z m 5.54815,0 h 2.77407 v 2.77407 h -2.77407 z m 5.54816,0 h 2.77405 v 2.77407 h -2.77405 z m 11.09627,0 h 2.77405 v 2.77407 h -2.77405 z m -74.899874,2.77407 h 2.774054 v 2.77409 h -2.774054 z m 2.774054,0 h 2.77409 v 2.77409 h -2.77409 z m 8.32222,0 h 2.77409 v 2.77409 h -2.77409 z m 2.77409,0 h 2.77405 v 2.77409 h -2.77405 z m 2.77405,0 h 2.77407 v 2.77409 h -2.77407 z m 5.54815,0 h 2.77407 v 2.77409 h -2.77407 z m 2.77407,0 h 2.77405 v 2.77409 h -2.77405 z m 11.09627,0 h 2.77407 v 2.77409 h -2.77407 z m 8.32221,0 h 2.77406 v 2.77409 h -2.77406 z m 5.54813,0 h 2.77405 v 2.77409 h -2.77405 z m 16.64441,0 h 2.77406 v 2.77409 h -2.77406 z m 2.77406,0 h 2.77409 v 2.77409 h -2.77409 z m -72.125786,2.77409 h 2.774072 v 2.77405 h -2.774072 z m 2.774072,0 h 2.774054 v 2.77405 h -2.774054 z m 2.774054,0 h 2.77409 v 2.77405 h -2.77409 z m 2.77409,0 h 2.77406 v 2.77405 h -2.77406 z m 11.09627,0 h 2.77407 v 2.77405 h -2.77407 z m 19.41849,0 h 2.77407 v 2.77405 h -2.77407 z m 2.77407,0 h 2.77405 v 2.77405 h -2.77405 z m 11.09627,0 h 2.77405 v 2.77405 h -2.77405 z m 2.77405,0 h 2.77409 v 2.77405 h -2.77409 z m 5.54815,0 h 2.77407 v 2.77405 h -2.77407 z m 11.09627,0 h 2.77409 v 2.77405 h -2.77409 z m 2.77409,0 h 2.77407 v 2.77405 h -2.77407 z m 2.77407,0 h 2.77405 v 2.77405 h -2.77405 z m -74.899874,2.77405 h 2.774054 v 2.77409 h -2.774054 z m 2.774054,0 h 2.77409 v 2.77409 h -2.77409 z m 5.54815,0 h 2.77407 v 2.77409 h -2.77407 z m 2.77407,0 h 2.77409 v 2.77409 h -2.77409 z m 2.77409,0 h 2.77405 v 2.77409 h -2.77405 z m 2.77405,0 h 2.77407 v 2.77409 h -2.77407 z m 5.54815,0 h 2.77407 v 2.77409 h -2.77407 z m 2.77407,0 h 2.77405 v 2.77409 h -2.77405 z m 2.77405,0 h 2.77407 v 2.77409 h -2.77407 z m 2.77407,0 h 2.77409 v 2.77409 h -2.77409 z m 2.77409,0 h 2.77406 v 2.77409 h -2.77406 z m 16.6444,0 h 2.77405 v 2.77409 h -2.77405 z m 2.77405,0 h 2.77409 v 2.77409 h -2.77409 z m 2.77409,0 h 2.77406 v 2.77409 h -2.77406 z m 5.54813,0 h 2.77409 v 2.77409 h -2.77409 z m 2.77409,0 h 2.77405 v 2.77409 h -2.77405 z m 5.54811,0 h 2.77409 v 2.77409 h -2.77409 z m 2.77409,0 h 2.77407 v 2.77409 h -2.77407 z m 2.77407,0 h 2.77405 v 2.77409 h -2.77405 z m -74.899874,2.77409 h 2.774054 v 2.77404 h -2.774054 z m 2.774054,0 h 2.77409 v 2.77404 h -2.77409 z m 2.77409,0 h 2.77406 v 2.77404 h -2.77406 z m 2.77406,0 h 2.77407 v 2.77404 h -2.77407 z m 2.77407,0 h 2.77409 v 2.77404 h -2.77409 z m 8.32221,0 h 2.77408 v 2.77404 h -2.77408 z m 11.09627,0 h 2.77409 v 2.77404 h -2.77409 z m 5.54815,0 h 2.77407 v 2.77404 h -2.77407 z m 2.77407,0 h 2.77405 v 2.77404 h -2.77405 z m 2.77405,0 h 2.77409 v 2.77404 h -2.77409 z m 11.09627,0 h 2.77409 v 2.77404 h -2.77409 z m 5.54815,0 h 2.77407 v 2.77404 h -2.77407 z m 13.87036,0 h 2.77407 v 2.77404 h -2.77407 z m -72.125804,2.77404 h 2.774054 v 2.77411 h -2.774054 z m 2.774054,0 h 2.77409 v 2.77411 h -2.77409 z m 2.77409,0 h 2.77406 v 2.77411 h -2.77406 z m 8.32222,0 h 2.77405 v 2.77411 h -2.77405 z m 11.09627,0 h 2.77405 v 2.77411 h -2.77405 z m 2.77405,0 h 2.77407 v 2.77411 h -2.77407 z m 2.77407,0 h 2.77409 v 2.77411 h -2.77409 z m 5.54815,0 h 2.77407 v 2.77411 h -2.77407 z m 13.87034,0 h 2.77405 v 2.77411 h -2.77405 z m 2.77405,0 h 2.77409 v 2.77411 h -2.77409 z m 8.32222,0 h 2.77409 v 2.77411 h -2.77409 z m 2.77409,0 h 2.77405 v 2.77411 h -2.77405 z m 2.77405,0 h 2.77406 v 2.77411 h -2.77406 z m 5.54815,0 h 2.77407 v 2.77411 h -2.77407 z m -69.35175,2.77411 h 2.77409 v 2.77405 h -2.77409 z m 8.32222,0 h 2.77409 v 2.77405 h -2.77409 z m 5.54814,0 h 2.77407 v 2.77405 h -2.77407 z m 2.77407,0 h 2.77408 v 2.77405 h -2.77408 z m 2.77408,0 h 2.77407 v 2.77405 h -2.77407 z m 2.77407,0 h 2.77405 v 2.77405 h -2.77405 z m 5.54812,0 h 2.77409 v 2.77405 h -2.77409 z m 5.54815,0 h 2.77407 v 2.77405 h -2.77407 z m 2.77407,0 h 2.77405 v 2.77405 h -2.77405 z m 5.54814,0 h 2.77406 v 2.77405 h -2.77406 z m 8.32218,0 h 2.77409 v 2.77405 h -2.77409 z m 8.32222,0 h 2.77409 v 2.77405 h -2.77409 z m 5.54814,0 h 2.77406 v 2.77405 h -2.77406 z m 2.77406,0 h 2.77409 v 2.77405 h -2.77409 z m 2.77409,0 h 2.77407 v 2.77405 h -2.77407 z m -74.899876,2.77405 h 2.774072 v 2.77402 h -2.774072 z m 5.548126,0 h 2.77409 v 2.77402 h -2.77409 z m 5.54815,0 h 2.77407 v 2.77402 h -2.77407 z m 5.54816,0 h 2.77405 v 2.77402 h -2.77405 z m 2.77405,0 h 2.77407 v 2.77402 h -2.77407 z m 2.77407,0 h 2.77408 v 2.77402 h -2.77408 z m 2.77408,0 h 2.77407 v 2.77402 h -2.77407 z m 8.32219,0 h 2.77409 v 2.77402 h -2.77409 z m 2.77409,0 h 2.77406 v 2.77402 h -2.77406 z m 2.77406,0 h 2.77407 v 2.77402 h -2.77407 z m 2.77407,0 h 2.77405 v 2.77402 h -2.77405 z m 5.54814,0 h 2.77406 v 2.77402 h -2.77406 z m 8.32218,0 h 2.77409 v 2.77402 h -2.77409 z m 5.54815,0 h 2.77407 v 2.77402 h -2.77407 z m 2.77407,0 h 2.77409 v 2.77402 h -2.77409 z m 2.77409,0 h 2.77405 v 2.77402 h -2.77405 z m 5.54811,0 h 2.77409 v 2.77402 h -2.77409 z m -58.25544,2.77402 h 2.77409 v 2.77409 h -2.77409 z m 5.54814,0 h 2.77407 v 2.77409 h -2.77407 z m 11.09627,0 h 2.77407 v 2.77409 h -2.77407 z m 2.77407,0 h 2.77409 v 2.77409 h -2.77409 z m 2.77409,0 h 2.77406 v 2.77409 h -2.77406 z m 2.77406,0 h 2.77407 v 2.77409 h -2.77407 z m 5.54812,0 h 2.77409 v 2.77409 h -2.77409 z m 2.77409,0 h 2.77406 v 2.77409 h -2.77406 z m 8.32218,0 h 2.77409 v 2.77409 h -2.77409 z m 2.77409,0 h 2.77406 v 2.77409 h -2.77406 z m 5.54813,0 h 2.77409 v 2.77409 h -2.77409 z m 2.77409,0 h 2.77405 v 2.77409 h -2.77405 z m 5.54811,0 h 2.77409 v 2.77409 h -2.77409 z m -69.351714,2.77409 h 2.774054 v 2.77407 h -2.774054 z m 2.774054,0 h 2.77409 v 2.77407 h -2.77409 z m 2.77409,0 h 2.77406 v 2.77407 h -2.77406 z m 2.77406,0 h 2.77407 v 2.77407 h -2.77407 z m 2.77407,0 h 2.77409 v 2.77407 h -2.77409 z m 2.77409,0 h 2.77405 v 2.77407 h -2.77405 z m 5.54812,0 h 2.77408 v 2.77407 h -2.77408 z m 5.54815,0 h 2.77405 v 2.77407 h -2.77405 z m 5.54812,0 h 2.77409 v 2.77407 h -2.77409 z m 2.77409,0 h 2.77406 v 2.77407 h -2.77406 z m 2.77406,0 h 2.77407 v 2.77407 h -2.77407 z m 5.54812,0 h 2.77409 v 2.77407 h -2.77409 z m 2.77409,0 h 2.77406 v 2.77407 h -2.77406 z m 2.77406,0 h 2.77407 v 2.77407 h -2.77407 z m 2.77407,0 h 2.77405 v 2.77407 h -2.77405 z m 2.77405,0 h 2.77409 v 2.77407 h -2.77409 z m 2.77409,0 h 2.77406 v 2.77407 h -2.77406 z m 2.77406,0 h 2.77407 v 2.77407 h -2.77407 z m 2.77407,0 h 2.77409 v 2.77407 h -2.77409 z m 2.77409,0 h 2.77405 v 2.77407 h -2.77405 z m 2.77405,0 h 2.77406 v 2.77407 h -2.77406 z m 2.77406,0 h 2.77409 v 2.77407 h -2.77409 z m -49.93323,2.77407 h 2.77408 v 2.77411 h -2.77408 z m 11.09627,0 h 2.77409 v 2.77411 h -2.77409 z m 11.09627,0 h 2.77409 v 2.77411 h -2.77409 z m 2.77409,0 h 2.77406 v 2.77411 h -2.77406 z m 2.77406,0 h 2.77407 v 2.77411 h -2.77407 z m 5.54812,0 h 2.77409 v 2.77411 h -2.77409 z m 11.09631,0 h 2.77405 v 2.77411 h -2.77405 z m 2.77405,0 h 2.77406 v 2.77411 h -2.77406 z m 2.77406,0 h 2.77409 v 2.77411 h -2.77409 z m 2.77409,0 h 2.77407 v 2.77411 h -2.77407 z m 2.77407,0 h 2.77405 v 2.77411 h -2.77405 z m -77.673946,2.77411 h 2.774072 v 2.77404 h -2.774072 z m 2.774072,0 h 2.774054 v 2.77404 h -2.774054 z m 2.774054,0 h 2.77409 v 2.77404 h -2.77409 z m 2.77409,0 h 2.77406 v 2.77404 h -2.77406 z m 2.77406,0 h 2.77407 v 2.77404 h -2.77407 z m 2.77407,0 h 2.77409 v 2.77404 h -2.77409 z m 2.77409,0 h 2.77405 v 2.77404 h -2.77405 z m 5.54812,0 h 2.77408 v 2.77404 h -2.77408 z m 2.77408,0 h 2.77407 v 2.77404 h -2.77407 z m 2.77407,0 h 2.77405 v 2.77404 h -2.77405 z m 2.77405,0 h 2.77407 v 2.77404 h -2.77407 z m 2.77407,0 h 2.77409 v 2.77404 h -2.77409 z m 5.54815,0 h 2.77407 v 2.77404 h -2.77407 z m 5.54812,0 h 2.77409 v 2.77404 h -2.77409 z m 5.54815,0 h 2.77407 v 2.77404 h -2.77407 z m 2.77407,0 h 2.77405 v 2.77404 h -2.77405 z m 2.77405,0 h 2.77409 v 2.77404 h -2.77409 z m 5.54815,0 h 2.77407 v 2.77404 h -2.77407 z m 5.54816,0 h 2.77405 v 2.77404 h -2.77405 z m 2.77405,0 h 2.77406 v 2.77404 h -2.77406 z m 5.54815,0 h 2.77407 v 2.77404 h -2.77407 z m -74.899876,2.77404 h 2.774072 v 2.77409 h -2.774072 z m 16.644436,0 h 2.77405 v 2.77409 h -2.77405 z m 5.54812,0 h 2.77408 v 2.77409 h -2.77408 z m 11.09627,0 h 2.77409 v 2.77409 h -2.77409 z m 2.77409,0 h 2.77406 v 2.77409 h -2.77406 z m 2.77406,0 h 2.77407 v 2.77409 h -2.77407 z m 2.77407,0 h 2.77405 v 2.77409 h -2.77405 z m 8.3222,0 h 2.77407 v 2.77409 h -2.77407 z m 5.54812,0 h 2.77409 v 2.77409 h -2.77409 z m 11.09631,0 h 2.77405 v 2.77409 h -2.77405 z m 2.77405,0 h 2.77406 v 2.77409 h -2.77406 z m -69.351726,2.77409 h 2.774072 v 2.77405 h -2.774072 z m 5.548126,0 h 2.77409 v 2.77405 h -2.77409 z m 2.77409,0 h 2.77406 v 2.77405 h -2.77406 z m 2.77406,0 h 2.77407 v 2.77405 h -2.77407 z m 5.54816,0 h 2.77405 v 2.77405 h -2.77405 z m 8.3222,0 h 2.77407 v 2.77405 h -2.77407 z m 5.54812,0 h 2.77407 v 2.77405 h -2.77407 z m 2.77407,0 h 2.77409 v 2.77405 h -2.77409 z m 13.87036,0 h 2.77406 v 2.77405 h -2.77406 z m 8.32218,0 h 2.77409 v 2.77405 h -2.77409 z m 2.77409,0 h 2.77406 v 2.77405 h -2.77406 z m 2.77406,0 h 2.77407 v 2.77405 h -2.77407 z m 2.77407,0 h 2.77409 v 2.77405 h -2.77409 z m 2.77409,0 h 2.77405 v 2.77405 h -2.77405 z m 5.54811,0 h 2.77409 v 2.77405 h -2.77409 z m 2.77409,0 h 2.77407 v 2.77405 h -2.77407 z m -74.899876,2.77405 h 2.774072 v 2.77407 h -2.774072 z m 5.548126,0 h 2.77409 v 2.77407 h -2.77409 z m 2.77409,0 h 2.77406 v 2.77407 h -2.77406 z m 2.77406,0 h 2.77407 v 2.77407 h -2.77407 z m 5.54816,0 h 2.77405 v 2.77407 h -2.77405 z m 5.54812,0 h 2.77408 v 2.77407 h -2.77408 z m 19.41849,0 h 2.77405 v 2.77407 h -2.77405 z m 5.54814,0 h 2.77406 v 2.77407 h -2.77406 z m 2.77406,0 h 2.77407 v 2.77407 h -2.77407 z m 5.54812,0 h 2.77409 v 2.77407 h -2.77409 z m 2.77409,0 h 2.77406 v 2.77407 h -2.77406 z m 5.54813,0 h 2.77409 v 2.77407 h -2.77409 z m 2.77409,0 h 2.77405 v 2.77407 h -2.77405 z m 2.77405,0 h 2.77406 v 2.77407 h -2.77406 z m 8.32222,0 h 2.77405 v 2.77407 h -2.77405 z m -77.673946,2.77407 h 2.774072 v 2.77409 h -2.774072 z m 5.548126,0 h 2.77409 v 2.77409 h -2.77409 z m 2.77409,0 h 2.77406 v 2.77409 h -2.77406 z m 2.77406,0 h 2.77407 v 2.77409 h -2.77407 z m 5.54816,0 h 2.77405 v 2.77409 h -2.77405 z m 5.54812,0 h 2.77408 v 2.77409 h -2.77408 z m 5.54815,0 h 2.77405 v 2.77409 h -2.77405 z m 2.77405,0 h 2.77407 v 2.77409 h -2.77407 z m 2.77407,0 h 2.77409 v 2.77409 h -2.77409 z m 2.77409,0 h 2.77406 v 2.77409 h -2.77406 z m 11.09627,0 h 2.77406 v 2.77409 h -2.77406 z m 5.54813,0 h 2.77405 v 2.77409 h -2.77405 z m 2.77405,0 h 2.77409 v 2.77409 h -2.77409 z m 8.32222,0 h 2.77409 v 2.77409 h -2.77409 z m 8.3222,0 h 2.77409 v 2.77409 h -2.77409 z m 5.54816,0 h 2.77405 v 2.77409 h -2.77405 z m -77.673946,2.77409 h 2.774072 v 2.77406 h -2.774072 z m 16.644436,0 h 2.77405 v 2.77406 h -2.77405 z m 11.09627,0 h 2.77405 v 2.77406 h -2.77405 z m 2.77405,0 h 2.77407 v 2.77406 h -2.77407 z m 5.54816,0 h 2.77406 v 2.77406 h -2.77406 z m 8.32218,0 h 2.77409 v 2.77406 h -2.77409 z m 5.54815,0 h 2.77407 v 2.77406 h -2.77407 z m 2.77407,0 h 2.77405 v 2.77406 h -2.77405 z m 2.77405,0 h 2.77409 v 2.77406 h -2.77409 z m 8.32222,0 h 2.77409 v 2.77406 h -2.77409 z m 2.77409,0 h 2.77405 v 2.77406 h -2.77405 z m 2.77405,0 h 2.77406 v 2.77406 h -2.77406 z m 5.54815,0 h 2.77407 v 2.77406 h -2.77407 z m -74.899876,2.77406 h 2.774072 v 2.77405 h -2.774072 z m 2.774072,0 h 2.774054 v 2.77405 h -2.774054 z m 2.774054,0 h 2.77409 v 2.77405 h -2.77409 z m 2.77409,0 h 2.77406 v 2.77405 h -2.77406 z m 2.77406,0 h 2.77407 v 2.77405 h -2.77407 z m 2.77407,0 h 2.77409 v 2.77405 h -2.77409 z m 2.77409,0 h 2.77405 v 2.77405 h -2.77405 z m 5.54812,0 h 2.77408 v 2.77405 h -2.77408 z m 5.54815,0 h 2.77405 v 2.77405 h -2.77405 z m 5.54812,0 h 2.77409 v 2.77405 h -2.77409 z m 16.64442,0 h 2.77407 v 2.77405 h -2.77407 z m 2.77407,0 h 2.77405 v 2.77405 h -2.77405 z m 2.77405,0 h 2.77409 v 2.77405 h -2.77409 z m 2.77409,0 h 2.77406 v 2.77405 h -2.77406 z m 5.54813,0 h 2.77409 v 2.77405 h -2.77409 z m 11.09629,0 h 2.77407 v 2.77405 h -2.77407 z"
       fill="#000000"
       id="path1001"
       style="opacity:1;stroke:none;stroke-width:2.77407" /><text
       xml:space="preserve"
       style="font-style:normal;font-variant:normal;font-weight:normal;font-stretch:normal;font-size:8.46667px;line-height:1.25;font-family:'Noto Mono';-inkscape-font-specification:'Noto Mono';opacity:1;stroke-width:0.101979"
       x="69.368332"
       y="263.51208"
       id="text17911"><tspan
         sodipodi:role="line"
         id="tspan17909"
         style="font-style:normal;font-variant:normal;font-weight:normal;font-stretch:normal;font-size:8.46667px;font-family:'Noto Sans';-inkscape-font-specification:'Noto Sans';stroke-width:0.101979"
         x="69.368332"
         y="263.51208">https://aikido-exam.knappi.org/</tspan></text><text
       xml:space="preserve"
       transform="matrix(0.26458333,0,0,0.26458333,-187.87308,45.782198)"
       id="text1053-9"
       style="font-size:10.6667px;line-height:1.25;font-family:'Roboto Mono';-inkscape-font-specification:'Roboto Mono';white-space:pre;shape-inside:url(#rect1055-7);display:inline;opacity:1" /><text
       xml:space="preserve"
       style="font-size:2.82222px;line-height:1.25;font-family:'Noto Sans';-inkscape-font-specification:'Noto Sans';opacity:1;stroke-width:0.264583"
       x="-159.24696"
       y="77.453537"
       id="text1121-3"><tspan
         sodipodi:role="line"
         id="tspan1119-6"
         style="font-size:2.82222px;stroke-width:0.264583"
         x="-159.24696"
         y="77.453537" /></text><g
       id="g4189"
       transform="translate(-1.9436226,-12.972599)"><path
         id="path3440"
         style="opacity:0.597411;mix-blend-mode:normal;fill:#000000;stroke:#000000;stroke-width:0.574653;stroke-linecap:round;stroke-linejoin:round;stroke-dasharray:none;stroke-opacity:1;filter:url(#filter3442)"
         d="m 210.49248,102.47791 a 24.353729,15.051433 0 0 0 -24.35355,15.05178 24.353729,15.051433 0 0 0 2.82463,7.02799 l -13.29324,11.22981 19.72696,-6.45439 a 24.353729,15.051433 0 0 0 15.0952,3.24787 24.353729,15.051433 0 0 0 24.35407,-15.05128 24.353729,15.051433 0 0 0 -24.35407,-15.05178 z"
         transform="matrix(0.96689065,0.09375659,0,0.95513102,5.6615158,-15.001496)" /><path
         id="path3273"
         style="opacity:1;fill:#ffffff;stroke:#000000;stroke-width:0.575605;stroke-linecap:round;stroke-linejoin:round;stroke-dasharray:none;stroke-opacity:1"
         d="m 209.21631,99.936522 a 24.435188,15.051003 0 0 0 -24.43501,15.051378 24.435188,15.051003 0 0 0 2.83408,7.02778 l -13.3377,11.22949 19.79294,-6.4542 a 24.435188,15.051003 0 0 0 15.14569,3.24778 24.435188,15.051003 0 0 0 24.43553,-15.05085 24.435188,15.051003 0 0 0 -24.43553,-15.051378 z" /><text
         xml:space="preserve"
         style="font-size:7.05556px;line-height:1.25;font-family:'Noto Sans';-inkscape-font-specification:'Noto Sans';text-align:center;text-anchor:middle;stroke-width:0.264583"
         x="210.2442"
         y="113.3728"
         id="text3381"><tspan
           sodipodi:role="line"
           id="tspan3379"
           style="font-style:italic;font-variant:normal;font-weight:normal;font-stretch:normal;font-family:'Noto Sans';-inkscape-font-specification:'Noto Sans Italic';text-align:center;text-anchor:middle;stroke-width:0.264583"
           x="210.2442"
           y="113.3728">shomen uchi</tspan><tspan
           sodipodi:role="line"
           style="font-style:italic;font-variant:normal;font-weight:normal;font-stretch:normal;font-family:'Noto Sans';-inkscape-font-specification:'Noto Sans Italic';text-align:center;text-anchor:middle;stroke-width:0.264583"
           x="210.2442"
           y="122.19225"
           id="tspan3383">ikyo</tspan></text></g><text
       xml:space="preserve"
       style="font-size:7.05556px;line-height:1.25;font-family:'Noto Sans';-inkscape-font-specification:'Noto Sans';stroke-width:0.264583"
       x="106.15333"
       y="284.2197"
       id="text4178"><tspan
         sodipodi:role="line"
         id="tspan4176"
         style="stroke-width:0.264583"
         x="106.15333"
         y="284.2197">Feedback? Fragen? Wünsche? </tspan></text></g></svg>
