<?xml version="1.0" encoding="UTF-8" standalone="no"?>
<!-- Created with Inkscape (http://www.inkscape.org/) -->

<svg
   xmlns:dc="http://purl.org/dc/elements/1.1/"
   xmlns:cc="http://creativecommons.org/ns#"
   xmlns:rdf="http://www.w3.org/1999/02/22-rdf-syntax-ns#"
   xmlns:svg="http://www.w3.org/2000/svg"
   xmlns="http://www.w3.org/2000/svg"
   xmlns:sodipodi="http://sodipodi.sourceforge.net/DTD/sodipodi-0.dtd"
   xmlns:inkscape="http://www.inkscape.org/namespaces/inkscape"
   width="144.3869mm"
   height="144.3869mm"
   viewBox="0 0 144.3869 144.3869"
   version="1.1"
   id="svg8"
   inkscape:version="0.92.5 (2060ec1f9f, 2020-04-08)"
   sodipodi:docname="logo.inkscape.svg">
  <defs
     id="defs2" />
  <sodipodi:namedview
     id="base"
     pagecolor="#ffffff"
     bordercolor="#666666"
     borderopacity="1.0"
     inkscape:pageopacity="0.0"
     inkscape:pageshadow="2"
     inkscape:zoom="0.49497475"
     inkscape:cx="227.66706"
     inkscape:cy="308.54744"
     inkscape:document-units="mm"
     inkscape:current-layer="layer1"
     showgrid="false"
     fit-margin-top="0"
     fit-margin-left="0"
     fit-margin-right="0"
     fit-margin-bottom="0"
     inkscape:pagecheckerboard="true"
     inkscape:window-width="1280"
     inkscape:window-height="997"
     inkscape:window-x="3286"
     inkscape:window-y="0"
     inkscape:window-maximized="1" />
  <metadata
     id="metadata5">
    <rdf:RDF>
      <cc:Work
         rdf:about="">
        <dc:format>image/svg+xml</dc:format>
        <dc:type
           rdf:resource="http://purl.org/dc/dcmitype/StillImage" />
        <dc:title></dc:title>
      </cc:Work>
    </rdf:RDF>
  </metadata>
  <g
     inkscape:label="Layer 1"
     inkscape:groupmode="layer"
     id="layer1"
     transform="translate(-30.238098,-77.773819)">
    <circle
       style="opacity:1;fill:#b6cbaa;fill-opacity:1;fill-rule:evenodd;stroke:#000000;stroke-width:0.5;stroke-linejoin:round;stroke-miterlimit:4;stroke-dasharray:none;stroke-dashoffset:0"
       id="path815"
       cx="102.43155"
       cy="149.96727"
       r="72.193451" />
    <g
       id="g851">
      <path
         sodipodi:nodetypes="ccccc"
         inkscape:connector-curvature="0"
         id="path845"
         d="m 94.536423,93.697371 c 5.162287,-2.966949 10.934607,-4.713837 19.624137,-0.626295 l 6.51163,37.553644 -29.934186,1.87088 z"
         style="fill:#ffffff;stroke:#000000;stroke-width:0.26458332px;stroke-linecap:butt;stroke-linejoin:miter;stroke-opacity:1" />
      <path
         sodipodi:nodetypes="szzsccccccccczsccs"
         inkscape:connector-curvature="0"
         id="path839"
         d="m 51.321568,156.74423 c 0.0696,-4.73353 -1.503345,-6.20453 0.417533,-14.19598 1.920878,-7.99145 10.892836,-24.8993 15.031257,-31.73219 4.138421,-6.83289 4.265758,-7.72062 7.724394,-10.22947 5.718223,-4.147922 20.041671,-6.889218 20.041671,-6.889218 l 7.306867,35.698718 9.81206,36.11624 -5.84548,26.72185 -36.743072,-22.33779 4.384118,-7.098 1.878906,-7.09798 c 0.503509,-5.08031 0.518725,-10.13192 0.417536,-15.2398 l -0.417536,-9.81193 c 0,0 -3.913991,8.93389 -4.680806,13.96082 -0.766815,5.02693 -1.680806,10.7949 -1.373449,14.84866 0.168437,2.22153 0.208767,6.68047 0.208767,6.68047 l -18.162766,-5.01035 c 0,0 -0.02148,-2.92286 0,-4.38405 z"
         style="fill:#ffffff;stroke:#000000;stroke-width:0.26458332px;stroke-linecap:butt;stroke-linejoin:miter;stroke-opacity:1" />
      <path
         sodipodi:nodetypes="ccccccccccscccccc"
         inkscape:connector-curvature="0"
         id="path841"
         d="m 84.933123,197.24451 c -0.41753,-1.67011 -1.8789,-17.11867 -1.8789,-17.11867 l 6.26302,-20.66768 13.987407,-37.16006 10.85591,-29.227022 c 0,0 12.64627,1.501756 16.34236,3.439979 19.49346,8.305813 20.04452,47.613993 20.07376,68.767253 -5.8763,-0.9236 -11.76353,-1.1255 -19.81684,-2.08366 1.23088,-10.42041 1.22989,-20.12478 0.10212,-28.37068 l -3.13151,16.07485 c 0,0 0.18727,3.22618 0.25004,5.21911 0.0608,1.92879 0.16749,5.21912 0.16749,5.21912 l 0.6263,7.09798 4.38412,7.30675 -1.87891,4.38406 -24.00826,7.93304 z"
         style="fill:#ffffff;stroke:#000000;stroke-width:0.26458332px;stroke-linecap:butt;stroke-linejoin:miter;stroke-opacity:1" />
      <path
         sodipodi:nodetypes="ccccccccccccccccccccc"
         inkscape:connector-curvature="0"
         id="path843"
         d="m 73.450916,162.79839 5.427952,6.4717 -9.185767,5.01035 -8.453996,9.38339 1.252604,4.80159 c 9.339169,-11.9895 16.387159,-19.19533 32.024942,-10.95464 7.720609,-0.30643 12.095379,-1.02096 18.182539,-1.14269 10.88651,3.18353 15.94266,6.26144 23.17319,15.23979 l 2.92274,-2.9227 c -7.51563,-8.55934 -12.56712,-11.72384 -21.29428,-14.61351 l 8.55947,-2.08764 2.71397,-3.549 -0.6263,-7.09798 -7.7244,4.59281 -8.76823,-0.41753 -14.196177,0.41753 -7.93317,-0.62629 -3.96658,-2.71394 -6.471786,-2.71394 -3.757815,-4.17528 z"
         style="fill:#000000;stroke:#000000;stroke-width:0.26458332px;stroke-linecap:butt;stroke-linejoin:miter;stroke-opacity:1" />
    </g>
  </g>
</svg>
