<svg xmlns="http://www.w3.org/2000/svg" viewBox="0 0 144.387 144.387"
     height="512" width="512"><g transform="translate(-30.238 -77.774)"
                                    stroke="#000"><circle r="72.193" cy="149.967" cx="102.432" fill="#b6cbaa" fill-rule="evenodd" stroke-width=".5" stroke-linejoin="round"/><g stroke-width=".265"><path d="M94.536 93.697c5.163-2.967 10.935-4.713 19.625-.626l6.511 37.554-29.934 1.87z" fill="#fff"/><path d="M51.322 156.744c.07-4.733-1.504-6.204.417-14.196 1.921-7.991 10.893-24.9 15.031-31.732 4.139-6.833 4.266-7.72 7.725-10.23 5.718-4.147 20.041-6.889 20.041-6.889l7.307 35.7 9.812 36.115-5.845 26.722-36.743-22.338 4.384-7.098 1.879-7.098c.503-5.08.519-10.132.417-15.24l-.417-9.811s-3.914 8.934-4.681 13.96c-.767 5.027-1.68 10.795-1.373 14.85.168 2.22.208 6.68.208 6.68l-18.162-5.01s-.022-2.924 0-4.385z" fill="#fff"/><path d="M84.933 197.245c-.417-1.67-1.879-17.12-1.879-17.12l6.263-20.667 13.988-37.16 10.856-29.227s12.646 1.502 16.342 3.44c19.493 8.306 20.044 47.614 20.074 68.767-5.877-.923-11.764-1.125-19.817-2.083 1.23-10.42 1.23-20.125.102-28.371l-3.132 16.075s.188 3.226.25 5.219c.061 1.929.168 5.219.168 5.219l.626 7.098 4.384 7.307-1.879 4.384-24.008 7.933z" fill="#fff"/><path d="M73.45 162.798l5.429 6.472-9.186 5.01-8.454 9.384 1.253 4.801c9.339-11.99 16.387-19.195 32.025-10.954 7.72-.307 12.095-1.021 18.182-1.143 10.887 3.184 15.943 6.262 23.173 15.24l2.923-2.923c-7.516-8.56-12.567-11.724-21.294-14.613l8.56-2.088 2.713-3.549-.626-7.098-7.724 4.593-8.769-.418-14.196.418-7.933-.626-3.967-2.714-6.471-2.714-3.758-4.176z"/></g></g></svg>