<svg id="Ebene_1" data-name="Ebene 1" xmlns="http://www.w3.org/2000/svg" viewBox="0 0 1890.51 1985.85"><defs><style>.cls-1{fill:#0097c6;}</style></defs><title>logo_Aikidofoederation_farbe</title><path class="cls-1" d="M1964.58,1520.72c-19.37-507.91-156.5-874-407.61-1088.08-205.35-175.08-435.27-201.23-554.06-201.23-41.76,0-70,3.16-79.66,4.44-13-111.11-83.63-219.21-87.06-224.4l-3.78-5.71-5.79,3.65C392.23,282.75,143.2,587.64,86.41,915.57c-58.74,339.25,114.12,592.07,145.23,634.23-91.47,66.84-150.88,184.25-153.42,189.32l-3.06,6.13,6.06,3.2C387,1909.78,666.1,1991.59,910.7,1991.59c578.87,0,786.35-460.49,804.19-502.9,78.87,35.53,175.92,39.85,218.28,39.85,15.57,0,24.83-.56,24.83-.56l6.84-.41ZM932.32,279.07s13.82,169.16,196.35,280.79C1306.54,668.65,1467,742,1536.81,948.35c12.55,37.09,17.25,70.06,16.84,99-1.07,103.47-67.49,155.1-74.19,157.41-.62.22-.82-.62-.78-2.12-.21-3.13,1.7-11.82,4.25-22.48,1.88-7.77,8.87-49,8.21-103.33-.76-54.7-9.33-122.47-38.69-182.67C1398.17,782.85,1318.8,623,961.6,527.25c0,0-29-79-29.54-219.13Q932,294,932.32,279.07ZM467.71,1375.78s-61.19,73.32-199.54,149c0,0,139.6-97.43,145-311.33,5.27-208.43-11.43-384.08,132.38-547.69,117.85-134.15,243.09-84,250-78.09.25.22.15.49-.11.8l.11.08c1.68,1.45-8.65,4.81-22.3,8.85C757.79,602,614.93,656.16,540,767.25c-49.68,73.66-114.55,171-111.88,352.12,1.14,71.09,12.66,155.07,39.58,255.53a2.49,2.49,0,0,0-.17.21C467.6,1375.33,467.65,1375.55,467.71,1375.78ZM959.37,562.49,1418.09,1357H500.5ZM1334.89,1501c-183.15,99.66-326.9,202-540.65,159.22C623.59,1626.11,601,1498.5,601.56,1483.78a10.12,10.12,0,0,1,.08-1.84c.42-2.19,8.48,5.07,18.8,14.88,11.66,11.08,130,107.69,263.82,117,123.54,8.64,301.66,19.84,563.16-241.66,0,0,94.09,16.35,228.81,98.31C1676.23,1470.5,1522.82,1398.76,1334.89,1501Z" transform="translate(-74.33 -5.74)"/></svg>